<?xml version="1.0" encoding="UTF-8"?>
<svg xmlns="http://www.w3.org/2000/svg" xmlns:xlink="http://www.w3.org/1999/xlink" width="82pt" height="61pt" viewBox="0 0 82 61" version="1.1">
<g id="surface1">
<path style=" stroke:none;fill-rule:nonzero;fill:rgb(1.960784%,37.647059%,68.627451%);fill-opacity:1;" d="M 74.59375 52.300781 C 74.660156 52.421875 74.800781 52.355469 74.773438 52.027344 L 74.535156 51.796875 Z M 74.59375 52.300781 "/>
<path style=" stroke:none;fill-rule:nonzero;fill:rgb(1.960784%,37.647059%,68.627451%);fill-opacity:1;" d="M 75.039062 50.117188 C 74.925781 49.738281 74.722656 49.300781 74.5 49.546875 C 74.730469 49.925781 74.636719 50.015625 74.910156 50.421875 C 74.9375 50.75 74.828125 50.988281 74.742188 50.9375 C 74.804688 51.046875 74.691406 51.4375 74.839844 51.613281 C 75.027344 51.191406 75.03125 50.660156 74.882812 50.097656 C 74.933594 49.980469 74.996094 50.09375 75.039062 50.117188 Z M 75.039062 50.117188 "/>
<path style=" stroke:none;fill-rule:nonzero;fill:rgb(1.960784%,37.647059%,68.627451%);fill-opacity:1;" d="M 75.414062 18.40625 L 75.382812 18.613281 C 75.398438 18.558594 75.410156 18.488281 75.414062 18.40625 Z M 75.414062 18.40625 "/>
<path style=" stroke:none;fill-rule:nonzero;fill:rgb(1.960784%,37.647059%,68.627451%);fill-opacity:1;" d="M 64.789062 8.714844 C 64.933594 8.710938 64.992188 8.679688 65.007812 8.660156 C 64.867188 8.675781 64.753906 8.691406 64.789062 8.714844 Z M 64.789062 8.714844 "/>
<path style=" stroke:none;fill-rule:nonzero;fill:rgb(1.960784%,37.647059%,68.627451%);fill-opacity:1;" d="M 61.472656 8.445312 C 61.546875 8.453125 61.609375 8.453125 61.671875 8.464844 C 61.597656 8.4375 61.519531 8.425781 61.472656 8.445312 Z M 61.472656 8.445312 "/>
<path style=" stroke:none;fill-rule:nonzero;fill:rgb(1.960784%,37.647059%,68.627451%);fill-opacity:1;" d="M 75.414062 18.40625 L 75.484375 17.878906 C 75.410156 17.84375 75.429688 18.152344 75.414062 18.40625 Z M 75.414062 18.40625 "/>
<path style=" stroke:none;fill-rule:nonzero;fill:rgb(1.960784%,37.647059%,68.627451%);fill-opacity:1;" d="M 74.464844 45.746094 C 74.472656 45.855469 74.496094 45.949219 74.523438 46.035156 C 74.519531 45.945312 74.507812 45.855469 74.5 45.765625 C 74.488281 45.757812 74.476562 45.753906 74.464844 45.746094 Z M 74.464844 45.746094 "/>
<path style=" stroke:none;fill-rule:nonzero;fill:rgb(1.960784%,37.647059%,68.627451%);fill-opacity:1;" d="M 75.601562 27.070312 L 75.601562 27.226562 C 75.632812 27.273438 75.664062 27.324219 75.707031 27.359375 Z M 75.601562 27.070312 "/>
<path style=" stroke:none;fill-rule:nonzero;fill:rgb(1.960784%,37.647059%,68.627451%);fill-opacity:1;" d="M 75.640625 33.714844 C 75.648438 33.566406 75.449219 33.515625 75.359375 33.453125 C 75.445312 33.542969 75.484375 33.652344 75.5 33.785156 C 75.535156 33.789062 75.582031 33.769531 75.640625 33.714844 Z M 75.640625 33.714844 "/>
<path style=" stroke:none;fill-rule:nonzero;fill:rgb(1.960784%,37.647059%,68.627451%);fill-opacity:1;" d="M 75.285156 44.257812 L 75.3125 44.445312 C 75.304688 44.394531 75.292969 44.316406 75.285156 44.257812 Z M 75.285156 44.257812 "/>
<path style=" stroke:none;fill-rule:nonzero;fill:rgb(1.960784%,37.647059%,68.627451%);fill-opacity:1;" d="M 75.648438 22.3125 C 75.679688 22.300781 75.707031 22.277344 75.722656 22.25 C 75.699219 22.25 75.667969 22.273438 75.648438 22.3125 Z M 75.648438 22.3125 "/>
<path style=" stroke:none;fill-rule:nonzero;fill:rgb(1.960784%,37.647059%,68.627451%);fill-opacity:1;" d="M 67.476562 51.339844 C 67.46875 51.355469 67.476562 51.363281 67.476562 51.378906 C 67.511719 51.355469 67.523438 51.339844 67.476562 51.339844 Z M 67.476562 51.339844 "/>
<path style=" stroke:none;fill-rule:nonzero;fill:rgb(1.960784%,37.647059%,68.627451%);fill-opacity:1;" d="M 75.078125 52.359375 L 74.972656 52.367188 C 74.960938 52.40625 74.949219 52.445312 74.949219 52.480469 Z M 75.078125 52.359375 "/>
<path style=" stroke:none;fill-rule:nonzero;fill:rgb(1.960784%,37.647059%,68.627451%);fill-opacity:1;" d="M 55.417969 8.183594 C 55.429688 8.183594 55.433594 8.183594 55.441406 8.1875 C 55.601562 8.164062 55.511719 8.167969 55.417969 8.183594 Z M 55.417969 8.183594 "/>
<path style=" stroke:none;fill-rule:nonzero;fill:rgb(1.960784%,37.647059%,68.627451%);fill-opacity:1;" d="M 6.441406 16.773438 C 6.621094 16.136719 6.671875 17.8125 6.875 16.851562 C 6.792969 16.941406 6.5625 15.976562 6.441406 16.773438 Z M 6.441406 16.773438 "/>
<path style=" stroke:none;fill-rule:nonzero;fill:rgb(1.960784%,37.647059%,68.627451%);fill-opacity:1;" d="M 74.488281 45.574219 C 74.488281 45.488281 74.488281 45.394531 74.488281 45.300781 C 74.480469 45.425781 74.484375 45.511719 74.488281 45.574219 Z M 74.488281 45.574219 "/>
<path style=" stroke:none;fill-rule:nonzero;fill:rgb(1.960784%,37.647059%,68.627451%);fill-opacity:1;" d="M 6.875 16.851562 L 6.878906 16.851562 L 6.894531 16.753906 C 6.886719 16.792969 6.882812 16.816406 6.875 16.851562 Z M 6.875 16.851562 "/>
<path style=" stroke:none;fill-rule:nonzero;fill:rgb(1.960784%,37.647059%,68.627451%);fill-opacity:1;" d="M 41.453125 8.308594 C 41.480469 8.34375 41.539062 8.371094 41.597656 8.398438 C 41.59375 8.375 41.5625 8.347656 41.453125 8.308594 Z M 41.453125 8.308594 "/>
<path style=" stroke:none;fill-rule:nonzero;fill:rgb(1.960784%,37.647059%,68.627451%);fill-opacity:1;" d="M 51.855469 8.597656 L 51.597656 8.574219 C 51.703125 8.589844 51.785156 8.59375 51.855469 8.597656 Z M 51.855469 8.597656 "/>
<path style=" stroke:none;fill-rule:nonzero;fill:rgb(1.960784%,37.647059%,68.627451%);fill-opacity:1;" d="M 36.054688 8.59375 C 35.917969 8.582031 35.867188 8.554688 35.675781 8.578125 C 35.695312 8.59375 35.710938 8.597656 35.734375 8.605469 C 35.804688 8.578125 35.894531 8.5625 36.054688 8.59375 Z M 36.054688 8.59375 "/>
<path style=" stroke:none;fill-rule:nonzero;fill:rgb(1.960784%,37.647059%,68.627451%);fill-opacity:1;" d="M 30.433594 8.597656 C 30.460938 8.613281 30.5 8.625 30.535156 8.640625 C 30.59375 8.636719 30.660156 8.628906 30.714844 8.628906 Z M 30.433594 8.597656 "/>
<path style=" stroke:none;fill-rule:nonzero;fill:rgb(1.960784%,37.647059%,68.627451%);fill-opacity:1;" d="M 50.390625 51.4375 C 50.511719 51.496094 50.59375 51.558594 50.648438 51.625 C 50.558594 51.476562 51.390625 51.425781 50.390625 51.4375 Z M 50.390625 51.4375 "/>
<path style=" stroke:none;fill-rule:nonzero;fill:rgb(1.960784%,37.647059%,68.627451%);fill-opacity:1;" d="M 74.574219 45.746094 C 74.523438 45.710938 74.5 45.664062 74.488281 45.574219 C 74.492188 45.644531 74.496094 45.703125 74.5 45.765625 C 74.53125 45.78125 74.558594 45.785156 74.574219 45.746094 Z M 74.574219 45.746094 "/>
<path style=" stroke:none;fill-rule:nonzero;fill:rgb(1.960784%,37.647059%,68.627451%);fill-opacity:1;" d="M 35.824219 10.21875 L 34.933594 10.1875 C 35.183594 10.207031 35.507812 10.21875 35.824219 10.21875 Z M 35.824219 10.21875 "/>
<path style=" stroke:none;fill-rule:nonzero;fill:rgb(1.960784%,37.647059%,68.627451%);fill-opacity:1;" d="M 10.066406 51.46875 L 10.265625 51.441406 C 10.191406 51.4375 10.117188 51.445312 10.066406 51.46875 Z M 10.066406 51.46875 "/>
<path style=" stroke:none;fill-rule:nonzero;fill:rgb(1.960784%,37.647059%,68.627451%);fill-opacity:1;" d="M 32.285156 10.21875 C 32.121094 10.148438 31.953125 10.101562 31.78125 10.074219 C 31.742188 10.089844 31.699219 10.101562 31.679688 10.132812 Z M 32.285156 10.21875 "/>
<path style=" stroke:none;fill-rule:nonzero;fill:rgb(1.960784%,37.647059%,68.627451%);fill-opacity:1;" d="M 56.535156 51.136719 C 55.683594 51.132812 56.132812 51.402344 55.953125 51.554688 C 54.9375 51.632812 55.484375 51.359375 55.140625 51.21875 C 54.503906 51.289062 54.015625 51.535156 53.546875 51.527344 C 53.507812 51.484375 53.414062 51.46875 53.527344 51.414062 C 52.855469 51.625 51.535156 51.421875 50.753906 51.691406 C 50.695312 51.667969 50.667969 51.644531 50.652344 51.625 C 50.777344 51.761719 50.792969 51.898438 50.769531 51.992188 C 50.390625 52 50.066406 52.167969 49.917969 51.988281 C 50.152344 51.992188 50.171875 51.921875 50.28125 51.871094 L 49.882812 51.945312 C 49.527344 51.691406 50.429688 51.859375 50.429688 51.667969 C 49.648438 51.75 48.742188 51.960938 48.140625 51.890625 C 48.019531 51.644531 49.542969 51.804688 48.746094 51.589844 L 49.667969 51.679688 C 48.960938 51.289062 50.226562 51.707031 49.578125 51.289062 C 48.363281 51.21875 48.222656 51.414062 47.007812 51.34375 C 46.734375 51.480469 47.09375 51.546875 46.820312 51.683594 C 45.097656 51.933594 45.464844 51.0625 44.199219 51.394531 C 43.867188 51.554688 43.746094 51.871094 42.84375 51.707031 L 43.148438 51.425781 C 41.972656 51.398438 42.476562 51.824219 41.246094 51.640625 C 41.460938 51.527344 42.167969 51.542969 41.988281 51.511719 C 41.191406 51.289062 41.425781 51.671875 40.8125 51.671875 L 40.683594 51.425781 C 39.433594 51.464844 38.050781 51.644531 36.660156 51.6875 C 36.738281 51.613281 36.976562 51.535156 36.648438 51.460938 C 34.902344 51.582031 32.910156 51.429688 31.222656 51.28125 L 30.582031 51.496094 C 30.429688 51.492188 30.300781 51.398438 30.460938 51.359375 C 29.804688 51.273438 30.429688 51.492188 30.113281 51.574219 C 29.734375 51.59375 29.617188 51.453125 29.855469 51.390625 C 28.691406 51.570312 26.542969 51.78125 25.324219 51.550781 L 25.5625 51.488281 C 24.605469 51.402344 24.484375 51.929688 23.601562 51.730469 L 23.769531 51.691406 C 21.703125 51.597656 19.417969 51.792969 17.839844 51.46875 C 17.539062 51.777344 15.792969 51.328125 15.660156 51.765625 C 14.476562 51.550781 14.8125 51.472656 13.152344 51.324219 C 12.710938 51.308594 12.492188 51.601562 11.941406 51.644531 L 11.925781 51.417969 L 11.179688 51.65625 L 10.785156 51.386719 L 10.265625 51.441406 C 10.472656 51.457031 10.707031 51.542969 10.671875 51.609375 C 9.871094 51.710938 8.714844 51.449219 8.695312 51.335938 L 8.515625 51.355469 C 8.492188 51.359375 8.441406 51.363281 8.441406 51.363281 L 8.425781 51.375 C 8.394531 51.382812 8.367188 51.398438 8.335938 51.410156 C 8.269531 51.433594 8.191406 51.453125 8.09375 51.476562 C 8.078125 51.445312 8.0625 51.402344 8.046875 51.359375 C 8.117188 51.324219 8.15625 51.371094 8.199219 51.375 L 8.246094 51.34375 C 8.222656 51.363281 8.207031 51.371094 8.195312 51.378906 C 8.117188 51.347656 8.183594 51.28125 8.238281 51.246094 C 8.296875 51.199219 8.347656 51.191406 8.25 51.152344 C 8.199219 51.1875 8.117188 51.160156 8.070312 51.152344 C 8.078125 51.136719 8.085938 51.136719 8.09375 51.117188 C 8.101562 51.078125 8.105469 51.042969 8.117188 51.003906 C 8.128906 50.929688 8.136719 50.84375 8.152344 50.753906 C 8.167969 50.574219 8.179688 50.375 8.183594 50.164062 C 8.195312 49.734375 8.179688 49.273438 8.152344 48.875 L 8.304688 49.027344 C 8.339844 47.597656 8.230469 46.011719 8.234375 44.40625 C 8.164062 44.980469 7.898438 44.847656 7.867188 44.375 L 8.101562 44.1875 C 7.960938 43.882812 8.019531 44.683594 7.835938 44.054688 C 7.863281 43.457031 8.105469 43.652344 8.183594 44 L 8.101562 43.269531 C 8.171875 43.222656 8.207031 43.394531 8.296875 43.441406 C 8.15625 43.144531 8.535156 42.179688 8.28125 41.75 L 8.351562 41.707031 C 8.351562 40.101562 8.273438 39.375 8.257812 38.070312 C 8.054688 38.046875 8.101562 37.535156 7.9375 37.140625 C 8.003906 36.183594 8.164062 35.113281 8.148438 33.960938 C 8.042969 33.140625 7.972656 33.714844 7.851562 33.351562 C 8.035156 33.296875 8.019531 32.136719 8.15625 32.734375 C 8.121094 31.347656 8.117188 30.960938 7.96875 29.207031 C 7.890625 29.394531 7.855469 29.609375 7.792969 29.496094 C 7.765625 29.179688 7.871094 28.773438 7.960938 28.816406 L 7.980469 28.898438 C 7.703125 26.929688 8.519531 24.347656 8.132812 22.78125 L 8.15625 22.867188 L 7.953125 21.238281 C 7.984375 20.488281 8.089844 21.6875 8.207031 21.132812 C 7.898438 19.375 8.25 18.355469 8.042969 16.910156 C 8.589844 15.789062 8.003906 12.933594 8.355469 11.421875 L 8.226562 11.507812 C 8.097656 11.121094 8.296875 11.035156 8.328125 10.75 C 8.230469 10.789062 8.214844 11.171875 8.144531 10.929688 L 8.125 10.5 L 8.117188 10.390625 C 8.117188 10.34375 8.117188 10.359375 8.117188 10.34375 L 8.113281 10.28125 C 8.105469 10.195312 8.101562 10.105469 8.101562 10.019531 C 8.207031 10.019531 8.308594 10.023438 8.40625 10.03125 C 8.726562 10.039062 9.039062 10.046875 9.355469 10.058594 C 10.054688 10.082031 10.753906 10.117188 11.457031 10.15625 C 12.859375 10.230469 14.261719 10.316406 15.652344 10.363281 C 16.875 10.402344 16.34375 9.695312 17.890625 10.003906 L 17.449219 10.246094 C 19.921875 9.960938 22.503906 10.257812 24.921875 10.011719 C 24.78125 10.066406 24.777344 10.140625 24.542969 10.136719 C 25.054688 10.3125 26.429688 10.148438 26.441406 10.003906 C 26.8125 10.019531 26.523438 10.136719 26.757812 10.207031 C 27.269531 10.308594 28.046875 9.980469 28.316406 10.15625 C 28.367188 10.1875 28.175781 10.214844 28.078125 10.226562 C 28.414062 10.144531 29.636719 10.246094 29.316406 10.046875 C 30.226562 10.144531 31.054688 9.957031 31.78125 10.074219 C 32.253906 9.847656 33.335938 10.1875 33.484375 9.863281 C 33.417969 10.195312 35.074219 10.132812 35.652344 9.976562 C 35.460938 10.074219 36.148438 10.078125 35.925781 10.21875 C 36.582031 10.214844 37.179688 10.15625 37.070312 9.980469 C 38.273438 10.378906 39.492188 9.664062 40.175781 10.171875 C 42.121094 9.996094 43.925781 9.871094 45.671875 9.792969 C 45.609375 10.121094 43.738281 9.828125 43.8125 10.175781 C 45.472656 10.039062 46.433594 9.753906 48.078125 9.835938 C 48.507812 9.878906 47.835938 9.976562 47.695312 10.03125 C 49.355469 9.898438 50.90625 10.066406 52.378906 9.882812 C 52.375 9.917969 52.21875 9.949219 52.066406 9.976562 C 52.355469 9.960938 52.746094 10.023438 52.707031 9.871094 L 52.425781 9.914062 C 51.960938 9.699219 53.582031 9.460938 53.632812 9.34375 C 53.140625 9.773438 55.089844 9.453125 54.308594 9.996094 C 54.5 9.964844 54.742188 9.894531 54.699219 9.792969 C 54.980469 9.824219 55.070312 9.882812 54.78125 9.996094 C 55.824219 9.917969 55.457031 9.753906 56.398438 9.757812 C 56.394531 9.832031 56.207031 9.859375 56.105469 9.945312 C 56.585938 9.800781 57.066406 9.664062 57.867188 9.722656 C 57.820312 9.769531 57.910156 9.824219 57.671875 9.820312 C 59.039062 9.800781 60.007812 9.449219 61.507812 9.582031 C 61.070312 9.898438 62.023438 9.6875 62.101562 9.960938 L 62.914062 9.875 L 62.585938 9.746094 C 63.296875 9.75 63.921875 9.550781 64.535156 9.640625 L 64.007812 9.753906 L 65.332031 9.703125 L 64.582031 9.597656 C 65.296875 9.457031 64.503906 9.253906 65.445312 9.328125 C 65.253906 9.355469 66.15625 9.332031 66.523438 9.492188 L 66.523438 9.496094 C 66.875 9.40625 67.234375 9.3125 67.757812 9.378906 C 67.894531 9.472656 67.644531 9.6875 67.738281 9.742188 C 68.082031 9.515625 69.394531 9.683594 69.835938 9.4375 C 69.6875 9.496094 69.679688 9.636719 69.726562 9.667969 L 70.015625 9.484375 C 70.347656 9.539062 70.394531 9.570312 70.34375 9.683594 C 71.328125 9.714844 70.023438 9.335938 71.199219 9.488281 C 71.105469 9.503906 71.152344 9.527344 70.957031 9.558594 C 71.546875 9.59375 72.117188 9.566406 72.671875 9.539062 C 72.949219 9.523438 73.222656 9.511719 73.496094 9.507812 C 73.636719 9.503906 73.769531 9.503906 73.910156 9.507812 C 74.007812 9.511719 74.105469 9.519531 74.195312 9.53125 C 74.25 9.667969 74.09375 9.683594 73.964844 9.699219 C 73.921875 9.699219 73.878906 9.703125 73.84375 9.707031 C 73.789062 9.710938 73.742188 9.714844 73.714844 9.722656 C 73.652344 9.742188 73.644531 9.769531 73.734375 9.828125 L 73.980469 9.816406 L 74.148438 9.796875 C 74.269531 9.78125 74.398438 9.761719 74.523438 9.746094 C 74.570312 10.023438 74.628906 10.246094 74.667969 10.929688 C 74.707031 11.503906 74.726562 12.078125 74.703125 12.625 L 74.730469 12.339844 C 75.113281 12.554688 74.542969 13.480469 74.726562 14.253906 C 74.695312 14.058594 74.511719 14.003906 74.554688 14.054688 C 74.492188 15.097656 74.648438 16.195312 74.769531 17.78125 L 74.671875 17.582031 C 74.582031 18.199219 74.621094 19.210938 74.570312 19.875 C 74.675781 20.070312 74.65625 20.457031 74.796875 20.222656 C 74.238281 22.277344 75.097656 24.140625 74.636719 25.964844 C 74.632812 25.746094 74.546875 25.445312 74.546875 25.621094 L 74.640625 27.167969 C 74.804688 27.050781 74.738281 26.96875 74.867188 26.640625 C 74.96875 26.839844 75.042969 27.273438 75.042969 27.660156 C 74.933594 26.960938 74.773438 27.667969 74.683594 27.96875 C 74.734375 27.917969 74.792969 28.023438 74.839844 27.992188 C 74.542969 28.808594 75.179688 28.128906 74.980469 29.238281 L 74.894531 29.179688 C 74.9375 29.59375 75.050781 29.976562 75.027344 30.425781 C 74.832031 30.609375 74.9375 29.984375 74.773438 29.953125 C 74.789062 30.582031 75.144531 31.195312 74.949219 31.757812 C 74.898438 31.492188 74.894531 31.113281 74.839844 30.84375 C 74.617188 31.460938 74.675781 31.535156 74.640625 31.992188 L 74.644531 31.949219 L 74.539062 33.015625 L 74.601562 32.738281 C 75.101562 33.527344 74.691406 34.339844 75.023438 35.402344 C 74.710938 34.371094 74.839844 35.230469 74.625 35.152344 C 74.5625 35.421875 74.496094 35.832031 74.433594 35.714844 C 74.609375 36.214844 74.292969 36.550781 74.550781 37.257812 C 74.484375 37.285156 74.542969 37.792969 74.371094 37.679688 C 74.425781 38.328125 74.488281 37.523438 74.578125 37.578125 C 74.820312 38.582031 74.285156 39.9375 74.621094 41.378906 C 74.753906 42.621094 74.992188 42.851562 75.109375 44.003906 C 74.996094 44.390625 74.851562 43.6875 74.851562 43.6875 C 74.75 44.316406 74.769531 44.789062 74.847656 45.378906 C 74.789062 45.261719 74.734375 45.382812 74.65625 45.5625 C 74.675781 46.035156 74.914062 45.882812 74.808594 46.507812 C 74.730469 46.402344 74.609375 46.261719 74.523438 46.035156 C 74.589844 46.59375 74.722656 47.144531 74.785156 47.722656 C 74.664062 47.878906 74.597656 47.375 74.519531 47.171875 C 74.574219 47.824219 74.632812 48.855469 74.824219 49.0625 L 74.894531 48.644531 C 74.90625 48.878906 74.726562 48.765625 74.691406 48.589844 C 74.539062 48.035156 74.757812 47.785156 74.828125 47.75 L 74.878906 48.164062 C 75.285156 47.738281 74.808594 46.507812 74.832031 45.675781 L 75.128906 46.019531 L 74.886719 45.171875 C 74.960938 44.988281 75.128906 44.863281 75.175781 45.277344 C 75.320312 44.683594 75.066406 44.75 75.230469 44.238281 C 75.257812 44.175781 75.273438 44.207031 75.285156 44.257812 L 75.199219 43.675781 C 75.257812 43.792969 75.410156 43.582031 75.363281 43.933594 C 75.535156 42.890625 75.136719 42.25 75.367188 41.859375 L 75.382812 41.945312 C 75.28125 40.496094 75.164062 41.804688 74.910156 40.71875 L 75.453125 39.988281 L 75.230469 39.84375 C 75.238281 39.695312 75.253906 39.394531 75.339844 39.453125 C 75.191406 38.894531 75.246094 39.550781 75.101562 39.226562 C 75.304688 38.507812 75.011719 37.238281 75.359375 37.082031 C 75.195312 36.820312 75.230469 37.769531 75.113281 36.996094 C 75.492188 36.777344 75.050781 36.113281 75.226562 35.453125 C 75.417969 35.65625 75.316406 36.277344 75.488281 35.617188 C 75.164062 35.226562 75.5625 34.339844 75.5 33.785156 C 75.234375 33.757812 75.386719 32.582031 75.300781 31.648438 C 75.386719 31.707031 75.449219 29.894531 75.539062 29.03125 L 75.585938 29.058594 C 75.316406 28.886719 75.367188 27.992188 75.316406 27.34375 C 75.472656 27.371094 75.535156 27.484375 75.605469 27.839844 L 75.601562 27.226562 C 75.519531 27.085938 75.476562 26.894531 75.449219 26.5 L 75.640625 26.652344 C 75.632812 25.835938 75.414062 25.011719 75.542969 23.96875 C 75.355469 23.90625 75.027344 24.800781 74.90625 23.691406 C 75.003906 23.648438 75.179688 23.609375 75.214844 23.898438 C 75.203125 23.804688 75.128906 23.558594 75.179688 23.367188 L 75.34375 23.8125 C 75.417969 23.335938 75.203125 23.5625 75.21875 23.179688 C 75.363281 23.1875 75.320312 22.898438 75.4375 22.953125 C 75.449219 23.050781 75.375 23.289062 75.433594 23.433594 C 75.457031 23.003906 75.539062 22.484375 75.648438 22.3125 C 75.570312 22.347656 75.457031 22.3125 75.4375 21.996094 C 75.429688 21.183594 75.609375 21.714844 75.6875 21.242188 C 75.585938 21.046875 75.691406 20.523438 75.472656 20.511719 C 75.476562 20.277344 75.574219 20.230469 75.632812 20.140625 C 75.535156 19.71875 75.601562 18.171875 75.378906 18.648438 L 75.363281 18.757812 C 75.359375 18.738281 75.355469 18.714844 75.351562 18.683594 C 75.351562 18.6875 75.351562 18.683594 75.351562 18.6875 L 75.351562 18.683594 C 75.144531 17.308594 75.476562 15.816406 75.382812 14.449219 L 75.457031 14.453125 C 75.371094 13.632812 75.410156 12.632812 75.253906 12.050781 C 75.253906 11.808594 75.382812 11.476562 75.46875 11.582031 C 75.441406 11.269531 75.410156 11.097656 75.394531 10.890625 C 75.386719 10.78125 75.386719 10.671875 75.398438 10.523438 C 75.414062 10.347656 75.433594 10.136719 75.453125 9.859375 C 75.515625 10.261719 75.542969 10.199219 75.550781 10.160156 C 75.554688 10.140625 75.554688 10.136719 75.554688 10.207031 C 75.550781 10.261719 75.550781 10.386719 75.542969 10.628906 C 75.574219 10.203125 75.597656 9.910156 75.621094 9.628906 C 75.636719 9.3125 75.640625 9.011719 75.605469 8.648438 C 75.433594 8.664062 75.199219 8.691406 74.945312 8.734375 C 75.214844 8.636719 75.042969 8.582031 74.691406 8.554688 C 74.515625 8.539062 74.300781 8.53125 74.097656 8.535156 C 73.859375 8.535156 73.78125 8.542969 73.675781 8.554688 C 73.777344 8.578125 73.84375 8.597656 73.976562 8.621094 L 74.371094 8.683594 C 74.21875 8.6875 74.070312 8.699219 73.929688 8.699219 C 73.828125 8.699219 73.726562 8.699219 73.625 8.699219 C 73.429688 8.691406 73.238281 8.683594 73.054688 8.679688 L 73.253906 8.433594 C 71.617188 8.140625 70.296875 8.945312 69.050781 8.445312 C 68.617188 8.613281 69.941406 8.566406 69.554688 8.765625 C 68.800781 8.734375 68.015625 8.382812 67.777344 8.382812 C 66.746094 8.25 66.8125 8.738281 65.734375 8.644531 C 65.871094 8.734375 66.003906 8.964844 65.191406 9.046875 C 64.4375 9.015625 64.265625 8.679688 64.742188 8.609375 C 64.921875 8.605469 65.011719 8.628906 65.007812 8.660156 C 65.246094 8.628906 65.566406 8.59375 65.269531 8.5 L 65.171875 8.585938 C 64.796875 8.5 63.757812 8.507812 64.003906 8.363281 C 63.433594 8.445312 63.757812 8.507812 64.175781 8.550781 C 63.214844 8.425781 62.667969 8.546875 61.671875 8.464844 C 61.832031 8.511719 61.976562 8.609375 61.816406 8.609375 C 60.355469 8.507812 61.171875 8.777344 60.183594 8.816406 C 59.617188 8.679688 60.382812 8.5 59.386719 8.609375 C 58.777344 8.523438 59.261719 8.378906 59.5 8.308594 C 58.59375 8.476562 57.808594 8.199219 57.285156 8.167969 L 57.761719 8.097656 C 57.476562 8.136719 57.242188 8.136719 57.007812 8.136719 L 57.28125 8.3125 C 57 8.28125 56.761719 8.28125 56.765625 8.207031 C 56.476562 8.324219 56.984375 8.5 56.410156 8.652344 C 56.035156 8.5625 55.273438 8.75 55.140625 8.519531 C 56.320312 8.59375 55.011719 8.285156 56.007812 8.25 C 55.8125 8.277344 55.578125 8.277344 55.300781 8.246094 C 55.253906 8.222656 55.339844 8.195312 55.417969 8.183594 C 54.289062 7.976562 54.902344 8.441406 53.730469 8.4375 C 53.878906 8.308594 53.460938 8.191406 53.269531 8.222656 C 53.738281 8.226562 53.492188 8.433594 53.0625 8.539062 C 52.316406 8.433594 52.25 8.609375 51.855469 8.597656 L 52.304688 8.644531 C 52.148438 8.777344 51.777344 8.761719 51.253906 8.800781 C 51.210938 8.699219 51.730469 8.734375 51.542969 8.683594 C 50.964844 8.914062 50.234375 8.449219 49.425781 8.605469 C 49.050781 8.515625 49.390625 8.359375 49.058594 8.300781 C 48.152344 8.472656 48.078125 8.121094 47.128906 8.261719 C 47.402344 8.433594 47.449219 8.394531 46.777344 8.5625 L 48.34375 8.4375 L 47.335938 8.699219 C 47.8125 8.699219 48.335938 8.585938 48.617188 8.613281 C 48.140625 8.757812 48.191406 8.714844 48.414062 8.855469 C 47.769531 8.59375 47.136719 9.011719 46.386719 8.835938 L 46.410156 8.398438 C 45.285156 8.207031 44.410156 8.625 42.953125 8.515625 L 43.425781 8.589844 C 43.226562 8.761719 42.523438 8.613281 42.050781 8.679688 C 42.09375 8.542969 41.800781 8.488281 41.597656 8.398438 C 41.621094 8.507812 40.53125 8.386719 40.398438 8.675781 L 39.746094 8.488281 C 38.566406 8.40625 38.402344 8.894531 37.269531 8.847656 C 37.613281 8.6875 37.09375 8.589844 37.855469 8.476562 C 37.476562 8.476562 37.136719 8.445312 37.128906 8.546875 C 36.90625 8.453125 36.082031 8.742188 35.734375 8.605469 C 35.574219 8.667969 35.523438 8.820312 35.09375 8.808594 C 35.050781 8.78125 35.097656 8.738281 35.097656 8.738281 C 35.09375 8.808594 34.433594 8.835938 34.804688 8.996094 C 33.640625 8.542969 31.550781 9.027344 30.535156 8.640625 C 29.710938 8.6875 28.71875 8.734375 27.96875 8.746094 C 28.015625 8.703125 27.972656 8.671875 28.113281 8.6875 C 27.078125 8.554688 27.476562 9.101562 26.304688 8.953125 C 25.699219 8.71875 26.929688 8.824219 26.550781 8.738281 C 26.390625 8.261719 25.132812 8.804688 24.34375 8.523438 L 24.53125 8.5 C 23.929688 8.335938 23.058594 8.675781 22.070312 8.644531 C 22.070312 8.644531 22.117188 8.601562 22.078125 8.574219 C 21.398438 8.8125 20.117188 8.890625 19.171875 8.964844 C 19.464844 8.777344 19.597656 8.863281 19.421875 8.671875 C 18.992188 8.703125 19.542969 8.980469 18.695312 9.03125 C 18.417969 8.925781 17.804688 8.839844 17.722656 8.636719 L 18.523438 8.628906 C 18.113281 8.367188 17.488281 8.636719 17.0625 8.59375 L 17.117188 8.476562 C 15.890625 8.515625 15.871094 8.804688 14.550781 8.78125 L 14.6875 8.867188 C 13.964844 9.152344 14.082031 8.707031 13.359375 8.917969 L 13.140625 8.628906 C 12.664062 8.699219 11.472656 8.90625 10.621094 8.964844 C 11.105469 8.75 12.101562 8.640625 12.722656 8.511719 C 12.25 8.511719 11.117188 8.535156 10.875 8.675781 C 11.058594 8.644531 11.300781 8.578125 11.488281 8.621094 C 10.910156 8.847656 10.148438 8.964844 9.203125 8.957031 C 9.261719 8.773438 9.015625 8.691406 8.640625 8.65625 C 8.496094 8.636719 8.117188 8.628906 7.78125 8.621094 C 7.433594 8.613281 7.058594 8.609375 6.699219 8.601562 C 6.691406 8.972656 6.675781 9.328125 6.640625 9.644531 C 6.625 9.800781 6.605469 9.949219 6.582031 10.082031 C 6.566406 10.152344 6.550781 10.214844 6.535156 10.273438 C 6.527344 10.304688 6.515625 10.332031 6.511719 10.359375 C 6.5 10.382812 6.496094 10.398438 6.484375 10.414062 C 6.6875 12.097656 6.398438 13.757812 6.429688 15.726562 C 6.859375 15.023438 6.445312 16.296875 6.886719 16.179688 C 6.914062 16.636719 6.90625 16.8125 6.878906 16.851562 L 6.613281 18.238281 C 6.484375 18.566406 6.511719 17.804688 6.414062 17.84375 C 6.382812 18.84375 6.226562 18.265625 6.113281 18.925781 C 6.269531 18.792969 6.339844 19.277344 6.28125 19.847656 L 6.480469 19.042969 C 6.71875 20.445312 6.109375 20.253906 6.347656 21.664062 L 6.207031 21.21875 C 6.289062 21.945312 6.203125 23.890625 6.558594 24.601562 C 6.503906 24.730469 6.386719 24.902344 6.355469 24.582031 C 6.300781 26.3125 6.730469 28.433594 6.511719 29.78125 L 6.40625 29.648438 C 6.433594 29.972656 6.609375 30.214844 6.496094 30.621094 C 6.453125 30.597656 6.390625 30.488281 6.382812 30.636719 C 6.421875 30.808594 6.574219 31.492188 6.511719 31.921875 L 6.390625 31.554688 C 6.246094 33.246094 6.683594 34.148438 6.757812 35.566406 C 6.441406 35.558594 6.339844 36.890625 6.289062 37.558594 L 6.242188 37.535156 C 6.203125 39.5 6.503906 40.875 6.632812 42.691406 C 6.285156 43.824219 6.484375 46.523438 6.296875 48.339844 C 6.347656 48.066406 6.542969 48.382812 6.570312 48.707031 C 6.503906 49.136719 6.789062 49.886719 6.496094 49.820312 L 6.503906 49.664062 C 6.363281 49.828125 6.3125 50.128906 6.296875 50.472656 C 6.285156 50.644531 6.285156 50.828125 6.285156 51.011719 C 6.289062 51.320312 6.289062 51.628906 6.289062 51.914062 C 6.414062 51.9375 6.542969 51.949219 6.667969 51.945312 C 6.609375 52.277344 6.566406 52.660156 6.527344 53.0625 C 6.855469 53.097656 7.230469 53.117188 7.625 53.128906 C 7.816406 53.132812 8.019531 53.132812 8.222656 53.136719 C 8.371094 53.136719 8.523438 53.136719 8.671875 53.136719 C 9.152344 53.128906 9.640625 53.097656 10.097656 53.074219 C 11.007812 53.023438 11.8125 52.992188 12.242188 53.21875 C 12.664062 53.121094 13.191406 53.121094 13.617188 53.027344 L 13.59375 53.234375 C 14.773438 53.289062 15.367188 53.3125 16.824219 53.265625 L 16.527344 53.410156 C 17.347656 53.421875 17.570312 52.816406 18.328125 52.800781 L 18.554688 53.113281 C 19.992188 53.105469 21.441406 53.375 22.867188 53.097656 C 22.84375 53.140625 22.796875 53.230469 22.570312 53.242188 C 23.242188 53.25 25.179688 53.453125 24.933594 53.03125 C 24.953125 53.308594 26.417969 53.058594 27.195312 52.933594 L 27.070312 53.136719 C 27.726562 52.878906 27.75 52.808594 28.664062 52.734375 C 28.878906 52.761719 28.855469 52.898438 28.566406 52.847656 C 29.289062 52.953125 29.128906 52.652344 30.003906 52.761719 L 29.675781 52.890625 C 30.421875 52.90625 30.363281 52.835938 30.769531 52.683594 C 31.238281 52.605469 32.183594 52.734375 32.289062 52.921875 C 32.386719 52.8125 32.796875 52.660156 33.238281 52.710938 C 33.296875 52.777344 33.132812 52.824219 33.054688 52.847656 C 34.296875 52.984375 34.902344 52.609375 35.753906 52.8125 C 35.773438 52.875 35.828125 52.910156 35.898438 52.929688 C 34.914062 52.925781 34.117188 52.914062 34.191406 52.902344 C 34.191406 53.089844 34.992188 53.121094 34.355469 53.378906 C 34.996094 53.234375 36.089844 52.929688 36.867188 53.019531 C 36.902344 53.039062 36.9375 53.054688 36.972656 53.082031 L 36.886719 53.105469 C 37.070312 53.125 37.226562 53.105469 37.378906 53.078125 C 37.628906 53.105469 37.785156 53.128906 38.023438 53.132812 C 38.117188 53.289062 38.9375 53.214844 39.332031 53.21875 C 39.300781 53.019531 39.824219 53.050781 39.332031 52.882812 C 39.402344 52.894531 39.261719 52.902344 38.996094 52.914062 C 38.9375 52.921875 38.867188 52.921875 38.828125 52.933594 C 38.832031 52.929688 38.847656 52.921875 38.855469 52.917969 C 38.59375 52.921875 38.253906 52.921875 37.867188 52.929688 C 38.179688 52.828125 38.507812 52.738281 38.945312 52.851562 C 39.152344 52.71875 39.378906 52.585938 39.503906 52.515625 C 40.046875 52.808594 41.09375 52.960938 41.246094 53.136719 C 42.457031 53.027344 44.101562 53.0625 44.863281 52.675781 C 45.207031 52.625 45.261719 52.789062 45.386719 52.851562 C 45.1875 52.886719 44.953125 52.882812 44.84375 52.9375 C 45.539062 52.835938 46.890625 52.898438 47.054688 52.628906 C 47.925781 52.746094 46.566406 52.875 47.761719 52.835938 L 47.597656 52.914062 C 49.949219 53.34375 51.421875 52.226562 54.027344 52.777344 C 53.847656 52.746094 53.753906 52.726562 53.71875 52.683594 C 56.691406 52.929688 59.84375 52.457031 62.777344 52.84375 C 63.605469 52.921875 63.699219 52.746094 64.210938 52.617188 L 64.386719 52.839844 L 65.257812 52.585938 C 66.492188 52.394531 67.390625 53.125 68.953125 52.769531 L 68.757812 52.625 C 69.316406 52.652344 70.53125 52.535156 70.4375 52.707031 C 70.492188 52.679688 70.621094 52.554688 70.835938 52.628906 L 70.851562 52.746094 L 72.234375 52.550781 C 73.304688 52.632812 72.066406 53.003906 73.625 53.027344 C 74.203125 52.984375 75.273438 52.691406 75.058594 52.617188 C 74.824219 52.609375 74.460938 52.546875 74.441406 52.429688 L 74.972656 52.367188 C 75.066406 52.027344 75.476562 51.675781 74.175781 51.441406 L 73.273438 51.648438 L 72.976562 51.484375 L 73.738281 51.472656 C 73.308594 51.316406 73.035156 51.457031 72.722656 51.550781 C 72.652344 51.464844 72.527344 51.402344 72.34375 51.371094 L 71.457031 51.695312 C 71.347656 51.558594 71.851562 51.429688 71.257812 51.359375 C 70.839844 51.503906 71.65625 51.65625 70.96875 51.75 C 70.53125 51.601562 70.660156 51.472656 70.152344 51.609375 C 70.082031 51.519531 70.1875 51.460938 70.390625 51.421875 C 69.9375 51.527344 69.191406 51.46875 68.957031 51.648438 C 68.507812 51.457031 67.429688 51.695312 67.476562 51.378906 C 67.328125 51.453125 66.675781 51.628906 66.257812 51.644531 C 67.019531 51.257812 64.703125 51.621094 64.902344 51.203125 C 64.339844 51.550781 62.875 51.363281 61.875 51.550781 C 61.929688 51.523438 62.039062 51.46875 62.128906 51.484375 C 61.566406 51.457031 61.40625 51.355469 61.042969 51.289062 C 60.96875 51.570312 60.097656 51.640625 59.625 51.816406 C 58.941406 51.539062 60.042969 51.480469 59.828125 51.214844 C 59.863281 51.449219 58.636719 51.449219 58.871094 51.640625 C 58.34375 51.46875 58.417969 51.554688 58.144531 51.316406 C 58.050781 51.675781 57.65625 51.382812 57.21875 51.601562 C 56.460938 51.425781 57.027344 51.261719 56.183594 51.375 C 55.792969 51.261719 56.535156 51.136719 56.535156 51.136719 Z M 36.65625 51.753906 C 36.65625 51.753906 36.65625 51.75 36.65625 51.75 C 36.832031 51.746094 36.976562 51.742188 37.070312 51.738281 C 36.984375 51.742188 36.867188 51.746094 36.65625 51.753906 Z M 34.988281 51.757812 C 35.191406 51.765625 35.445312 51.765625 35.714844 51.765625 C 35.769531 51.839844 35.707031 51.910156 35.539062 51.90625 C 35.628906 51.859375 35.238281 51.816406 34.988281 51.757812 Z M 38.519531 53.183594 C 38.253906 53.210938 38.167969 53.171875 38.132812 53.132812 C 38.253906 53.125 38.40625 53.117188 38.59375 53.105469 C 38.605469 53.097656 38.621094 53.089844 38.625 53.078125 C 38.601562 53.117188 38.574219 53.15625 38.519531 53.183594 Z M 38.519531 53.183594 "/>
<path style=" stroke:none;fill-rule:nonzero;fill:rgb(1.960784%,37.647059%,68.627451%);fill-opacity:1;" d="M 38.996094 52.914062 C 39.03125 52.90625 39.054688 52.902344 39.101562 52.898438 C 39.050781 52.882812 39 52.867188 38.945312 52.851562 C 38.914062 52.875 38.882812 52.898438 38.855469 52.917969 C 38.902344 52.914062 38.953125 52.914062 38.996094 52.914062 Z M 38.996094 52.914062 "/>
<path style=" stroke:none;fill-rule:nonzero;fill:rgb(1.960784%,37.647059%,68.627451%);fill-opacity:1;" d="M 75.378906 18.648438 L 75.382812 18.613281 C 75.375 18.640625 75.367188 18.667969 75.351562 18.683594 C 75.363281 18.660156 75.367188 18.660156 75.378906 18.648438 Z M 75.378906 18.648438 "/>
<path style=" stroke:none;fill-rule:nonzero;fill:rgb(1.960784%,37.647059%,68.627451%);fill-opacity:1;" d="M 11.925781 51.367188 L 11.925781 51.417969 L 12.074219 51.375 Z M 11.925781 51.367188 "/>
<path style=" stroke:none;fill-rule:nonzero;fill:rgb(1.960784%,37.647059%,68.627451%);fill-opacity:1;" d="M 74.683594 27.96875 C 74.667969 27.984375 74.648438 28.023438 74.632812 28.09375 C 74.644531 28.085938 74.664062 28.035156 74.683594 27.96875 Z M 74.683594 27.96875 "/>
<path style=" stroke:none;fill-rule:nonzero;fill:rgb(1.960784%,37.647059%,68.627451%);fill-opacity:1;" d="M 74.640625 31.992188 L 74.5625 32.5625 C 74.609375 32.320312 74.625 32.140625 74.640625 31.992188 Z M 74.640625 31.992188 "/>
<path style=" stroke:none;fill-rule:nonzero;fill:rgb(1.960784%,37.647059%,68.627451%);fill-opacity:1;" d="M 74.539062 35.089844 C 74.570312 35.128906 74.597656 35.136719 74.625 35.152344 L 74.625 35.144531 Z M 74.539062 35.089844 "/>
<path style=" stroke:none;fill-rule:nonzero;fill:rgb(1.960784%,37.647059%,68.627451%);fill-opacity:1;" d="M 52.066406 9.976562 C 52.027344 9.976562 51.984375 9.976562 51.949219 9.984375 C 51.675781 10.023438 51.859375 10.007812 52.066406 9.976562 Z M 52.066406 9.976562 "/>
<path style=" stroke:none;fill-rule:nonzero;fill:rgb(1.960784%,37.647059%,68.627451%);fill-opacity:1;" d="M 66.523438 9.496094 C 66.371094 9.53125 66.21875 9.566406 66.054688 9.589844 C 66.3125 9.605469 66.511719 9.609375 66.523438 9.496094 Z M 66.523438 9.496094 "/>
<path style=" stroke:none;fill-rule:nonzero;fill:rgb(1.960784%,37.647059%,68.627451%);fill-opacity:1;" d="M 35.925781 10.222656 C 35.925781 10.222656 35.925781 10.222656 35.925781 10.21875 C 35.886719 10.21875 35.859375 10.21875 35.824219 10.21875 Z M 35.925781 10.222656 "/>
<path style=" stroke:none;fill-rule:nonzero;fill:rgb(1.960784%,37.647059%,68.627451%);fill-opacity:1;" d="M 65.386719 9.585938 C 65.644531 9.625 65.859375 9.617188 66.054688 9.589844 C 65.847656 9.574219 65.597656 9.558594 65.386719 9.585938 Z M 65.386719 9.585938 "/>
<path style=" stroke:none;fill-rule:nonzero;fill:rgb(1.960784%,37.647059%,68.627451%);fill-opacity:1;" d="M 74.445312 48.507812 L 74.4375 48.65625 C 74.453125 48.652344 74.460938 48.664062 74.46875 48.675781 Z M 74.445312 48.507812 "/>
<path style=" stroke:none;fill-rule:nonzero;fill:rgb(1.960784%,37.647059%,68.627451%);fill-opacity:1;" d="M 74.46875 48.675781 L 74.492188 48.839844 C 74.492188 48.765625 74.488281 48.695312 74.46875 48.675781 Z M 74.46875 48.675781 "/>
<path style=" stroke:none;fill-rule:nonzero;fill:rgb(1.960784%,37.647059%,68.627451%);fill-opacity:1;" d="M 74.542969 49.1875 L 74.492188 48.839844 C 74.492188 48.960938 74.488281 49.109375 74.542969 49.1875 Z M 74.542969 49.1875 "/>
<path style=" stroke:none;fill-rule:nonzero;fill:rgb(1.960784%,37.647059%,68.627451%);fill-opacity:1;" d="M 74.539062 44.40625 L 74.464844 44.363281 C 74.480469 44.386719 74.503906 44.40625 74.539062 44.40625 Z M 74.539062 44.40625 "/>
<path style=" stroke:none;fill-rule:nonzero;fill:rgb(1.960784%,37.647059%,68.627451%);fill-opacity:1;" d="M 74.519531 43.164062 C 74.5 43.457031 74.363281 43.910156 74.40625 44.324219 L 74.464844 44.363281 C 74.355469 44.167969 74.640625 43.445312 74.519531 43.164062 Z M 74.519531 43.164062 "/>
<path style=" stroke:none;fill-rule:nonzero;fill:rgb(1.960784%,37.647059%,68.627451%);fill-opacity:1;" d="M 75.429688 37.964844 L 75.367188 39.011719 C 75.449219 38.828125 75.550781 38.589844 75.570312 39.0625 C 75.804688 37.746094 75.394531 39.332031 75.429688 37.964844 Z M 75.429688 37.964844 "/>
<path style=" stroke:none;fill-rule:nonzero;fill:rgb(1.960784%,37.647059%,68.627451%);fill-opacity:1;" d="M 75.539062 34.730469 C 75.574219 35.292969 75.652344 34.722656 75.699219 34.753906 C 75.625 34.398438 75.605469 34.3125 75.539062 34.730469 Z M 75.539062 34.730469 "/>
<path style=" stroke:none;fill-rule:nonzero;fill:rgb(1.960784%,37.647059%,68.627451%);fill-opacity:1;" d="M 75.539062 11.347656 L 75.726562 11.402344 C 75.699219 10.972656 75.652344 11.398438 75.539062 11.347656 Z M 75.539062 11.347656 "/>
<path style=" stroke:none;fill-rule:nonzero;fill:rgb(1.960784%,37.647059%,68.627451%);fill-opacity:1;" d="M 72.800781 9.683594 L 73.214844 9.796875 L 73.410156 9.625 Z M 72.800781 9.683594 "/>
<path style=" stroke:none;fill-rule:nonzero;fill:rgb(1.960784%,37.647059%,68.627451%);fill-opacity:1;" d="M 70.195312 8.347656 L 70.382812 8.324219 L 69.667969 8.390625 Z M 70.195312 8.347656 "/>
<path style=" stroke:none;fill-rule:nonzero;fill:rgb(1.960784%,37.647059%,68.627451%);fill-opacity:1;" d="M 31.433594 8.417969 L 31.558594 8.644531 C 31.847656 8.605469 31.914062 8.347656 31.433594 8.417969 Z M 31.433594 8.417969 "/>
<path style=" stroke:none;fill-rule:nonzero;fill:rgb(1.960784%,37.647059%,68.627451%);fill-opacity:1;" d="M 14.699219 8.648438 C 14.515625 8.539062 14.050781 8.464844 13.757812 8.578125 C 14.136719 8.59375 14.507812 8.679688 14.699219 8.648438 Z M 14.699219 8.648438 "/>
<path style=" stroke:none;fill-rule:nonzero;fill:rgb(1.960784%,37.647059%,68.627451%);fill-opacity:1;" d="M 6.75 53.210938 L 6.335938 53.261719 L 6.308594 53.050781 L 6.320312 53.277344 L 7.269531 53.222656 Z M 6.75 53.210938 "/>
<path style=" stroke:none;fill-rule:nonzero;fill:rgb(1.960784%,37.647059%,68.627451%);fill-opacity:1;" d="M 12.078125 54.863281 C 12.125 54.96875 12.191406 54.894531 12.128906 54.597656 L 11.984375 54.402344 Z M 12.078125 54.863281 "/>
<path style=" stroke:none;fill-rule:nonzero;fill:rgb(1.960784%,37.647059%,68.627451%);fill-opacity:1;" d="M 12.019531 52.816406 C 11.910156 52.472656 11.753906 52.082031 11.679688 52.328125 C 11.835938 52.660156 11.804688 52.746094 11.992188 53.105469 C 12.046875 53.402344 12.023438 53.632812 11.976562 53.585938 C 12.023438 53.691406 12.015625 54.058594 12.109375 54.207031 C 12.152344 53.804688 12.082031 53.3125 11.9375 52.808594 C 11.945312 52.691406 11.992188 52.796875 12.019531 52.816406 Z M 12.019531 52.816406 "/>
<path style=" stroke:none;fill-rule:nonzero;fill:rgb(1.960784%,37.647059%,68.627451%);fill-opacity:1;" d="M 8.101562 23.546875 L 8.113281 23.738281 C 8.113281 23.683594 8.109375 23.621094 8.101562 23.546875 Z M 8.101562 23.546875 "/>
<path style=" stroke:none;fill-rule:nonzero;fill:rgb(1.960784%,37.647059%,68.627451%);fill-opacity:1;" d="M 17.042969 14.527344 C 16.90625 14.550781 16.851562 14.566406 16.84375 14.578125 C 16.972656 14.550781 17.078125 14.535156 17.042969 14.527344 Z M 17.042969 14.527344 "/>
<path style=" stroke:none;fill-rule:nonzero;fill:rgb(1.960784%,37.647059%,68.627451%);fill-opacity:1;" d="M 20.113281 14.21875 C 20.050781 14.226562 19.992188 14.230469 19.933594 14.238281 C 20.003906 14.238281 20.070312 14.234375 20.113281 14.21875 Z M 20.113281 14.21875 "/>
<path style=" stroke:none;fill-rule:nonzero;fill:rgb(1.960784%,37.647059%,68.627451%);fill-opacity:1;" d="M 8.101562 23.546875 L 8.070312 23.058594 C 8.027344 23.03125 8.078125 23.3125 8.101562 23.546875 Z M 8.101562 23.546875 "/>
<path style=" stroke:none;fill-rule:nonzero;fill:rgb(1.960784%,37.647059%,68.627451%);fill-opacity:1;" d="M 11.167969 48.824219 C 11.1875 48.925781 11.210938 49.011719 11.234375 49.085938 C 11.21875 49.003906 11.203125 48.921875 11.1875 48.839844 C 11.179688 48.835938 11.175781 48.832031 11.167969 48.824219 Z M 11.167969 48.824219 "/>
<path style=" stroke:none;fill-rule:nonzero;fill:rgb(1.960784%,37.647059%,68.627451%);fill-opacity:1;" d="M 9.320312 31.519531 L 9.335938 31.667969 C 9.359375 31.707031 9.378906 31.746094 9.402344 31.78125 Z M 9.320312 31.519531 "/>
<path style=" stroke:none;fill-rule:nonzero;fill:rgb(1.960784%,37.647059%,68.627451%);fill-opacity:1;" d="M 10.195312 37.648438 C 10.179688 37.507812 10.074219 37.472656 10.023438 37.429688 C 10.074219 37.5 10.109375 37.601562 10.132812 37.71875 C 10.152344 37.71875 10.171875 37.695312 10.195312 37.648438 Z M 10.195312 37.648438 "/>
<path style=" stroke:none;fill-rule:nonzero;fill:rgb(1.960784%,37.647059%,68.627451%);fill-opacity:1;" d="M 11.382812 47.394531 L 11.417969 47.566406 C 11.410156 47.519531 11.394531 47.445312 11.382812 47.394531 Z M 11.382812 47.394531 "/>
<path style=" stroke:none;fill-rule:nonzero;fill:rgb(1.960784%,37.647059%,68.627451%);fill-opacity:1;" d="M 8.726562 27.132812 C 8.738281 27.117188 8.75 27.097656 8.753906 27.070312 C 8.742188 27.074219 8.730469 27.097656 8.726562 27.132812 Z M 8.726562 27.132812 "/>
<path style=" stroke:none;fill-rule:nonzero;fill:rgb(1.960784%,37.647059%,68.627451%);fill-opacity:1;" d="M 19.398438 54.296875 C 19.402344 54.289062 19.394531 54.285156 19.394531 54.277344 C 19.363281 54.292969 19.347656 54.304688 19.398438 54.296875 Z M 19.398438 54.296875 "/>
<path style=" stroke:none;fill-rule:nonzero;fill:rgb(1.960784%,37.647059%,68.627451%);fill-opacity:1;" d="M 12.3125 54.800781 L 12.414062 54.78125 C 12.421875 54.761719 12.429688 54.742188 12.425781 54.722656 Z M 12.3125 54.800781 "/>
<path style=" stroke:none;fill-rule:nonzero;fill:rgb(1.960784%,37.647059%,68.627451%);fill-opacity:1;" d="M 25.71875 13.546875 C 25.707031 13.546875 25.703125 13.546875 25.695312 13.546875 C 25.550781 13.578125 25.632812 13.566406 25.71875 13.546875 Z M 25.71875 13.546875 "/>
<path style=" stroke:none;fill-rule:nonzero;fill:rgb(1.960784%,37.647059%,68.627451%);fill-opacity:1;" d="M 70.605469 13.71875 C 70.613281 13.117188 70.851562 14.660156 70.828125 13.761719 C 70.800781 13.847656 70.558594 12.972656 70.605469 13.71875 Z M 70.605469 13.71875 "/>
<path style=" stroke:none;fill-rule:nonzero;fill:rgb(1.960784%,37.647059%,68.627451%);fill-opacity:1;" d="M 11.160156 48.664062 C 11.148438 48.582031 11.132812 48.5 11.125 48.414062 C 11.136719 48.53125 11.148438 48.609375 11.160156 48.664062 Z M 11.160156 48.664062 "/>
<path style=" stroke:none;fill-rule:nonzero;fill:rgb(1.960784%,37.647059%,68.627451%);fill-opacity:1;" d="M 70.828125 13.761719 L 70.824219 13.664062 C 70.824219 13.707031 70.828125 13.730469 70.828125 13.761719 Z M 70.828125 13.761719 "/>
<path style=" stroke:none;fill-rule:nonzero;fill:rgb(1.960784%,37.647059%,68.627451%);fill-opacity:1;" d="M 38.589844 11.628906 C 38.554688 11.617188 38.503906 11.609375 38.449219 11.609375 C 38.457031 11.617188 38.484375 11.625 38.589844 11.628906 Z M 38.589844 11.628906 "/>
<path style=" stroke:none;fill-rule:nonzero;fill:rgb(1.960784%,37.647059%,68.627451%);fill-opacity:1;" d="M 28.976562 12.867188 L 29.210938 12.847656 C 29.117188 12.851562 29.042969 12.855469 28.976562 12.867188 Z M 28.976562 12.867188 "/>
<path style=" stroke:none;fill-rule:nonzero;fill:rgb(1.960784%,37.647059%,68.627451%);fill-opacity:1;" d="M 43.542969 10.769531 C 43.679688 10.757812 43.722656 10.765625 43.894531 10.730469 C 43.878906 10.726562 43.863281 10.722656 43.839844 10.722656 C 43.78125 10.746094 43.695312 10.765625 43.542969 10.769531 Z M 43.542969 10.769531 "/>
<path style=" stroke:none;fill-rule:nonzero;fill:rgb(1.960784%,37.647059%,68.627451%);fill-opacity:1;" d="M 48.730469 10.023438 C 48.695312 10.023438 48.664062 10.019531 48.628906 10.015625 C 48.578125 10.027344 48.519531 10.035156 48.46875 10.046875 Z M 48.730469 10.023438 "/>
<path style=" stroke:none;fill-rule:nonzero;fill:rgb(1.960784%,37.647059%,68.627451%);fill-opacity:1;" d="M 35.144531 51.976562 C 35.023438 51.96875 34.949219 51.945312 34.890625 51.921875 C 34.980469 51.984375 34.222656 52.117188 35.144531 51.976562 Z M 35.144531 51.976562 "/>
<path style=" stroke:none;fill-rule:nonzero;fill:rgb(1.960784%,37.647059%,68.627451%);fill-opacity:1;" d="M 11.222656 48.816406 C 11.195312 48.789062 11.175781 48.746094 11.160156 48.664062 C 11.167969 48.722656 11.179688 48.785156 11.1875 48.839844 C 11.207031 48.855469 11.21875 48.855469 11.222656 48.816406 Z M 11.222656 48.816406 "/>
<path style=" stroke:none;fill-rule:nonzero;fill:rgb(1.960784%,37.647059%,68.627451%);fill-opacity:1;" d="M 43.648438 9.941406 L 44.472656 9.835938 C 44.238281 9.855469 43.9375 9.898438 43.648438 9.941406 Z M 43.648438 9.941406 "/>
<path style=" stroke:none;fill-rule:nonzero;fill:rgb(1.960784%,37.647059%,68.627451%);fill-opacity:1;" d="M 72.324219 46.617188 L 72.136719 46.652344 C 72.214844 46.648438 72.277344 46.632812 72.324219 46.617188 Z M 72.324219 46.617188 "/>
<path style=" stroke:none;fill-rule:nonzero;fill:rgb(1.960784%,37.647059%,68.627451%);fill-opacity:1;" d="M 46.910156 9.46875 C 47.0625 9.484375 47.222656 9.480469 47.386719 9.472656 C 47.417969 9.457031 47.457031 9.449219 47.476562 9.433594 Z M 46.910156 9.46875 "/>
<path style=" stroke:none;fill-rule:nonzero;fill:rgb(1.960784%,37.647059%,68.627451%);fill-opacity:1;" d="M 29.5 52.941406 C 30.28125 52.835938 29.851562 52.761719 30.003906 52.660156 C 30.9375 52.484375 30.449219 52.695312 30.78125 52.71875 C 31.355469 52.601562 31.792969 52.414062 32.230469 52.355469 C 32.265625 52.371094 32.351562 52.367188 32.253906 52.410156 C 32.859375 52.214844 34.089844 52.140625 34.789062 51.90625 C 34.847656 51.90625 34.875 51.914062 34.890625 51.921875 C 34.761719 51.871094 34.738281 51.804688 34.753906 51.753906 C 35.105469 51.703125 35.394531 51.574219 35.539062 51.644531 C 35.320312 51.675781 35.308594 51.710938 35.210938 51.75 L 35.574219 51.660156 C 35.925781 51.738281 35.074219 51.777344 35.089844 51.871094 C 35.804688 51.726562 36.628906 51.5 37.183594 51.457031 C 37.316406 51.5625 35.90625 51.683594 36.648438 51.6875 L 35.792969 51.765625 C 36.472656 51.867188 35.273438 51.824219 35.898438 51.945312 C 37.027344 51.816406 37.144531 51.703125 38.269531 51.574219 C 38.511719 51.472656 38.171875 51.488281 38.414062 51.382812 C 39.988281 51.03125 39.710938 51.511719 40.855469 51.183594 C 41.144531 51.054688 41.246094 50.886719 42.089844 50.84375 L 41.820312 51.027344 C 42.910156 50.886719 42.414062 50.734375 43.5625 50.667969 C 43.367188 50.75 42.714844 50.835938 42.886719 50.828125 C 43.632812 50.832031 43.394531 50.675781 43.960938 50.589844 L 44.09375 50.699219 C 45.25 50.515625 46.507812 50.242188 47.785156 50.035156 C 47.71875 50.082031 47.507812 50.152344 47.808594 50.144531 C 49.417969 49.851562 51.261719 49.660156 52.828125 49.515625 L 53.40625 49.320312 C 53.550781 49.304688 53.667969 49.332031 53.527344 49.375 C 54.140625 49.328125 53.550781 49.304688 53.835938 49.222656 C 54.175781 49.160156 54.292969 49.214844 54.085938 49.277344 C 55.140625 49.035156 57.105469 48.644531 58.25 48.59375 L 58.035156 48.660156 C 58.921875 48.578125 58.996094 48.300781 59.824219 48.28125 L 59.671875 48.324219 C 61.585938 48.09375 63.679688 47.695312 65.160156 47.644531 C 65.414062 47.453125 67.050781 47.4375 67.148438 47.210938 C 68.253906 47.15625 67.949219 47.242188 69.484375 47.09375 C 69.898438 47.042969 70.082031 46.871094 70.582031 46.773438 L 70.613281 46.886719 L 71.28125 46.667969 L 71.664062 46.75 L 72.136719 46.652344 C 71.949219 46.675781 71.730469 46.664062 71.753906 46.625 C 72.492188 46.46875 73.578125 46.441406 73.601562 46.496094 L 74.472656 46.320312 L 74.910156 46.238281 L 75.570312 46.117188 C 75.554688 46.140625 75.425781 46.175781 75.246094 46.214844 C 75.160156 46.234375 75.0625 46.253906 74.96875 46.273438 C 74.910156 46.289062 74.84375 46.304688 74.789062 46.316406 C 74.839844 46.304688 74.886719 46.296875 74.929688 46.28125 C 74.96875 46.273438 74.996094 46.265625 75.066406 46.253906 C 75.183594 46.230469 75.269531 46.21875 75.335938 46.210938 C 75.472656 46.191406 75.53125 46.195312 75.570312 46.199219 C 75.652344 46.214844 75.667969 46.246094 76.089844 46.171875 C 76.070312 46.058594 76.042969 45.910156 76.003906 45.710938 C 76.003906 45.910156 75.914062 45.566406 75.886719 45.53125 C 75.878906 45.371094 75.847656 45.050781 75.839844 44.933594 C 75.828125 44.765625 75.804688 44.578125 75.78125 44.382812 C 75.734375 43.988281 75.664062 43.5625 75.601562 43.195312 L 75.695312 43.328125 C 75.53125 42.003906 75.269531 40.550781 75.0625 39.070312 C 75.101562 39.605469 74.953125 39.5 74.878906 39.070312 L 74.972656 38.878906 C 74.859375 38.609375 74.992188 39.339844 74.824219 38.777344 C 74.757812 38.21875 74.90625 38.382812 74.984375 38.695312 L 74.847656 38.03125 C 74.878906 37.984375 74.921875 38.140625 74.972656 38.175781 C 74.859375 37.910156 74.925781 36.996094 74.742188 36.621094 L 74.773438 36.574219 C 74.566406 35.09375 74.433594 34.433594 74.253906 33.222656 C 74.152344 33.214844 74.109375 32.738281 73.976562 32.394531 C 73.886719 31.503906 73.828125 30.507812 73.667969 29.445312 C 73.511719 28.695312 73.554688 29.234375 73.445312 28.902344 C 73.527344 28.835938 73.371094 27.773438 73.511719 28.316406 C 73.324219 27.035156 73.265625 26.683594 72.964844 25.070312 C 72.949219 25.253906 72.964844 25.453125 72.917969 25.355469 C 72.863281 25.0625 72.863281 24.679688 72.914062 24.71875 L 72.933594 24.792969 C 72.542969 22.996094 72.613281 20.554688 72.21875 19.132812 L 72.242188 19.214844 L 71.925781 17.726562 C 71.847656 17.03125 72.054688 18.132812 72.039062 17.613281 C 71.660156 16.011719 71.703125 15.046875 71.414062 13.730469 C 71.539062 12.660156 70.886719 10.066406 70.855469 8.644531 L 70.804688 8.738281 C 70.695312 8.382812 70.78125 8.296875 70.757812 8.03125 C 70.71875 8.074219 70.757812 8.425781 70.691406 8.207031 C 70.652344 7.945312 70.609375 7.679688 70.566406 7.414062 C 70.503906 7.007812 70.449219 6.601562 70.390625 6.191406 C 69.9375 6.25 69.480469 6.316406 69.027344 6.382812 C 68.707031 6.421875 68.386719 6.460938 68.0625 6.503906 C 67.421875 6.582031 66.769531 6.65625 66.121094 6.734375 C 64.820312 6.886719 63.519531 7.039062 62.238281 7.1875 C 61.105469 7.332031 61.644531 7.613281 60.199219 7.664062 L 60.585938 7.484375 C 58.328125 7.957031 55.925781 8.152344 53.707031 8.59375 C 53.839844 8.546875 53.835938 8.511719 54.058594 8.480469 C 53.574219 8.457031 52.3125 8.726562 52.316406 8.800781 C 51.964844 8.839844 52.226562 8.746094 52.007812 8.742188 C 51.523438 8.757812 50.832031 9.023438 50.570312 8.972656 C 50.523438 8.964844 50.699219 8.925781 50.785156 8.90625 C 50.484375 8.992188 49.347656 9.101562 49.65625 9.15625 C 48.8125 9.234375 48.058594 9.4375 47.386719 9.472656 C 46.964844 9.644531 45.941406 9.625 45.828125 9.800781 C 45.863281 9.625 44.339844 9.878906 43.820312 10.03125 C 43.992188 9.960938 43.351562 10.046875 43.550781 9.953125 C 42.949219 10.039062 42.398438 10.152344 42.511719 10.222656 C 41.375 10.1875 40.300781 10.699219 39.640625 10.539062 C 37.855469 10.886719 36.203125 11.183594 34.59375 11.453125 C 34.628906 11.28125 36.375 11.183594 36.28125 11.019531 C 34.757812 11.308594 33.894531 11.574219 32.371094 11.75 C 31.972656 11.785156 32.582031 11.652344 32.714844 11.605469 C 31.191406 11.890625 29.75 12.011719 28.398438 12.300781 C 28.402344 12.285156 28.550781 12.246094 28.683594 12.214844 C 28.414062 12.253906 28.058594 12.28125 28.097656 12.347656 L 28.355469 12.292969 C 28.800781 12.339844 27.320312 12.667969 27.28125 12.730469 C 27.707031 12.453125 25.929688 12.871094 26.617188 12.5 C 26.441406 12.539062 26.222656 12.605469 26.269531 12.652344 C 26.007812 12.675781 25.917969 12.660156 26.179688 12.5625 C 25.226562 12.742188 25.578125 12.773438 24.703125 12.894531 C 24.703125 12.859375 24.875 12.820312 24.960938 12.765625 C 24.53125 12.898438 24.09375 13.03125 23.351562 13.105469 C 23.398438 13.078125 23.304688 13.0625 23.527344 13.03125 C 22.265625 13.222656 21.398438 13.53125 20 13.65625 C 20.390625 13.445312 19.523438 13.675781 19.429688 13.550781 L 18.691406 13.699219 L 19 13.726562 C 18.347656 13.816406 17.785156 13.996094 17.210938 14.03125 L 17.691406 13.90625 L 16.472656 14.109375 L 17.171875 14.058594 C 16.519531 14.226562 17.265625 14.222656 16.390625 14.308594 C 16.566406 14.269531 15.738281 14.398438 15.390625 14.371094 L 15.390625 14.367188 C 15.066406 14.460938 14.746094 14.550781 14.253906 14.585938 C 14.125 14.5625 14.339844 14.425781 14.25 14.40625 C 13.949219 14.566406 12.726562 14.660156 12.339844 14.835938 C 12.46875 14.789062 12.464844 14.71875 12.421875 14.710938 L 12.167969 14.839844 C 11.855469 14.851562 11.8125 14.847656 11.855469 14.78125 C 10.941406 14.898438 12.167969 14.914062 11.074219 14.992188 C 11.164062 14.972656 11.117188 14.96875 11.292969 14.929688 C 10.199219 15.042969 9.199219 15.285156 8.203125 15.386719 C 7.886719 15.289062 9.066406 15.226562 8.714844 15.164062 C 8.402344 15.21875 8.085938 15.269531 7.765625 15.324219 C 7.371094 15.402344 6.964844 15.472656 6.566406 15.542969 C 6.652344 16.046875 6.738281 16.546875 6.828125 17.042969 C 6.894531 17.457031 6.957031 17.863281 7.003906 18.265625 L 6.980469 18.003906 C 7.199219 18.167969 7.035156 19.0625 7.222656 19.761719 C 7.1875 19.589844 7.089844 19.546875 7.117188 19.59375 C 7.222656 20.5625 7.441406 21.558594 7.703125 23.015625 L 7.632812 22.839844 C 7.664062 23.414062 7.8125 24.34375 7.878906 24.960938 C 7.953125 25.132812 7.992188 25.488281 8.035156 25.265625 C 8.023438 27.199219 8.691406 28.855469 8.695312 30.570312 C 8.664062 30.371094 8.582031 30.097656 8.605469 30.257812 L 8.851562 31.683594 C 8.917969 31.558594 8.875 31.488281 8.898438 31.179688 C 8.972656 31.355469 9.066406 31.75 9.117188 32.109375 C 8.972656 31.472656 8.984375 32.132812 8.980469 32.417969 C 9 32.367188 9.039062 32.457031 9.0625 32.429688 C 9.019531 33.195312 9.246094 32.53125 9.289062 33.566406 L 9.238281 33.519531 C 9.3125 33.894531 9.421875 34.246094 9.464844 34.652344 C 9.390625 34.839844 9.363281 34.257812 9.28125 34.242188 C 9.367188 34.820312 9.625 35.355469 9.601562 35.894531 C 9.542969 35.652344 9.492188 35.296875 9.425781 35.054688 C 9.394531 35.644531 9.433594 35.707031 9.472656 36.132812 L 9.472656 36.085938 L 9.558594 37.078125 L 9.558594 36.824219 C 9.90625 37.511719 9.808594 38.292969 10.105469 39.246094 C 9.820312 38.320312 9.996094 39.097656 9.878906 39.046875 C 9.878906 39.296875 9.902344 39.679688 9.855469 39.578125 C 10.007812 40.027344 9.894531 40.355469 10.117188 40.988281 C 10.082031 41.023438 10.179688 41.480469 10.078125 41.394531 C 10.1875 41.988281 10.117188 41.242188 10.167969 41.285156 C 10.417969 42.191406 10.332031 43.476562 10.679688 44.785156 C 10.910156 45.921875 11.054688 46.121094 11.261719 47.175781 C 11.253906 47.542969 11.097656 46.898438 11.097656 46.898438 C 11.125 47.484375 11.195312 47.917969 11.308594 48.457031 C 11.261719 48.351562 11.253906 48.46875 11.238281 48.644531 C 11.308594 49.078125 11.40625 48.914062 11.4375 49.503906 C 11.382812 49.40625 11.300781 49.292969 11.234375 49.085938 C 11.335938 49.59375 11.476562 50.097656 11.582031 50.625 C 11.539062 50.777344 11.445312 50.316406 11.382812 50.132812 C 11.492188 50.730469 11.652344 51.683594 11.773438 51.855469 L 11.753906 51.464844 C 11.789062 51.683594 11.6875 51.589844 11.648438 51.433594 C 11.5 50.925781 11.574219 50.683594 11.605469 50.648438 L 11.6875 51.027344 C 11.832031 50.605469 11.4375 49.503906 11.339844 48.734375 L 11.535156 49.03125 L 11.296875 48.265625 C 11.3125 48.089844 11.382812 47.960938 11.457031 48.339844 C 11.453125 47.78125 11.335938 47.859375 11.355469 47.378906 C 11.359375 47.324219 11.371094 47.347656 11.382812 47.394531 L 11.261719 46.863281 C 11.308594 46.964844 11.355469 46.757812 11.382812 47.09375 C 11.328125 46.117188 11.046875 45.554688 11.113281 45.179688 L 11.132812 45.253906 C 10.894531 43.925781 11.003906 45.140625 10.738281 44.15625 L 10.910156 43.441406 L 10.78125 43.328125 C 10.765625 43.1875 10.738281 42.917969 10.789062 42.957031 C 10.640625 42.457031 10.753906 43.054688 10.640625 42.765625 C 10.648438 42.089844 10.339844 40.941406 10.488281 40.765625 C 10.375 40.542969 10.515625 41.410156 10.359375 40.710938 C 10.515625 40.480469 10.210938 39.894531 10.214844 39.277344 C 10.335938 39.453125 10.367188 40.03125 10.367188 39.410156 C 10.152344 39.070312 10.234375 38.226562 10.132812 37.71875 C 9.996094 37.714844 9.921875 36.617188 9.761719 35.765625 C 9.8125 35.8125 9.605469 34.136719 9.542969 33.332031 L 9.566406 33.355469 C 9.410156 33.21875 9.320312 32.390625 9.210938 31.792969 C 9.292969 31.808594 9.335938 31.914062 9.417969 32.230469 L 9.335938 31.667969 C 9.28125 31.539062 9.234375 31.371094 9.164062 31.003906 L 9.285156 31.132812 C 9.171875 30.386719 8.957031 29.636719 8.882812 28.664062 C 8.789062 28.621094 8.742188 29.46875 8.535156 28.457031 C 8.578125 28.410156 8.65625 28.359375 8.714844 28.625 C 8.699219 28.539062 8.628906 28.320312 8.625 28.140625 L 8.769531 28.535156 C 8.746094 28.09375 8.664062 28.316406 8.625 27.960938 C 8.695312 27.957031 8.636719 27.695312 8.703125 27.738281 C 8.722656 27.828125 8.714844 28.050781 8.761719 28.179688 C 8.71875 27.78125 8.695312 27.296875 8.726562 27.132812 C 8.691406 27.167969 8.628906 27.144531 8.578125 26.855469 C 8.472656 26.109375 8.625 26.589844 8.601562 26.144531 C 8.527344 25.96875 8.511719 25.484375 8.40625 25.484375 C 8.371094 25.265625 8.421875 25.21875 8.4375 25.128906 C 8.335938 24.75 8.171875 23.316406 8.117188 23.769531 L 8.121094 23.871094 C 8.117188 23.855469 8.113281 23.832031 8.109375 23.808594 C 8.109375 23.8125 8.109375 23.808594 8.109375 23.8125 L 8.109375 23.808594 C 7.828125 22.554688 7.796875 21.15625 7.578125 19.902344 L 7.617188 19.894531 C 7.46875 19.148438 7.355469 18.222656 7.203125 17.695312 C 7.171875 17.472656 7.191406 17.160156 7.25 17.246094 C 7.191406 16.964844 7.160156 16.808594 7.125 16.617188 C 7.109375 16.523438 7.089844 16.40625 7.082031 16.289062 C 7.070312 16.199219 7.058594 16.078125 7.054688 15.953125 C 7.179688 16.371094 7.101562 15.835938 7.164062 16.367188 C 7.15625 16.285156 7.15625 16.265625 7.15625 16.226562 C 7.152344 16.195312 7.152344 16.164062 7.148438 16.132812 C 7.148438 16.074219 7.148438 16.03125 7.144531 15.988281 C 7.238281 15.980469 7.308594 15.976562 7.394531 15.957031 C 7.460938 15.945312 7.527344 15.929688 7.613281 15.910156 C 7.707031 15.886719 7.816406 15.859375 7.9375 15.824219 C 7.683594 15.957031 8.511719 15.863281 8.859375 15.78125 L 8.332031 15.792969 C 8.726562 15.722656 9.070312 15.683594 9.421875 15.640625 L 9.253906 15.785156 C 10.78125 15.714844 11.941406 15.148438 13.125 15.222656 C 13.515625 15.082031 12.296875 15.285156 12.640625 15.128906 C 13.339844 15.046875 14.089844 15.113281 14.308594 15.085938 C 15.269531 15.015625 15.171875 14.78125 16.175781 14.6875 C 16.042969 14.660156 15.90625 14.5625 16.640625 14.417969 C 17.34375 14.332031 17.527344 14.472656 17.089844 14.566406 C 16.925781 14.597656 16.839844 14.59375 16.84375 14.578125 C 16.621094 14.625 16.332031 14.691406 16.613281 14.695312 L 16.699219 14.636719 C 17.050781 14.632812 18.003906 14.492188 17.792969 14.59375 C 18.3125 14.480469 18.003906 14.492188 17.613281 14.527344 C 18.511719 14.460938 19.007812 14.324219 19.933594 14.238281 C 19.78125 14.234375 19.644531 14.203125 19.785156 14.183594 C 21.144531 14.042969 20.371094 14.015625 21.28125 13.863281 C 21.8125 13.855469 21.117188 14.046875 22.03125 13.859375 C 22.597656 13.824219 22.164062 13.957031 21.945312 14.027344 C 22.769531 13.820312 23.515625 13.851562 24 13.800781 L 23.5625 13.898438 C 23.820312 13.839844 24.039062 13.808594 24.261719 13.78125 L 23.996094 13.730469 C 24.257812 13.707031 24.476562 13.671875 24.476562 13.710938 C 24.734375 13.617188 24.25 13.597656 24.769531 13.445312 C 25.121094 13.4375 25.816406 13.246094 25.949219 13.34375 C 24.859375 13.464844 26.085938 13.4375 25.167969 13.589844 C 25.34375 13.550781 25.5625 13.519531 25.824219 13.5 C 25.867188 13.507812 25.792969 13.527344 25.71875 13.546875 C 26.773438 13.5 26.179688 13.347656 27.257812 13.195312 C 27.132812 13.277344 27.523438 13.28125 27.699219 13.242188 C 27.265625 13.304688 27.472656 13.164062 27.863281 13.058594 C 28.566406 13.011719 28.609375 12.910156 28.976562 12.867188 L 28.558594 12.902344 C 28.6875 12.816406 29.035156 12.777344 29.519531 12.6875 C 29.566406 12.726562 29.082031 12.785156 29.257812 12.78125 C 29.777344 12.589844 30.480469 12.722656 31.214844 12.542969 C 31.566406 12.539062 31.265625 12.660156 31.574219 12.640625 C 32.394531 12.4375 32.492188 12.601562 33.359375 12.40625 C 33.09375 12.355469 33.050781 12.382812 33.65625 12.207031 L 32.222656 12.476562 L 33.132812 12.21875 C 32.695312 12.28125 32.222656 12.40625 31.960938 12.429688 C 32.386719 12.296875 32.347656 12.324219 32.128906 12.285156 C 32.746094 12.328125 33.304688 12.039062 34 12.023438 L 34.011719 12.238281 C 35.058594 12.183594 35.835938 11.867188 37.1875 11.726562 L 36.75 11.75 C 36.917969 11.644531 37.578125 11.621094 38.007812 11.519531 C 37.980469 11.601562 38.253906 11.589844 38.449219 11.609375 C 38.417969 11.558594 39.4375 11.46875 39.535156 11.308594 L 40.148438 11.3125 C 41.246094 11.199219 41.363281 10.933594 42.410156 10.804688 C 42.105469 10.929688 42.585938 10.914062 41.894531 11.066406 C 42.242188 11.019531 42.558594 10.988281 42.554688 10.9375 C 42.765625 10.953125 43.511719 10.703125 43.839844 10.722656 C 43.984375 10.671875 44.019531 10.589844 44.410156 10.539062 C 44.457031 10.546875 44.414062 10.570312 44.414062 10.570312 C 44.410156 10.539062 45.023438 10.4375 44.667969 10.410156 C 45.773438 10.476562 47.667969 9.960938 48.628906 10.015625 C 49.390625 9.882812 50.300781 9.730469 50.992188 9.625 C 50.949219 9.652344 50.996094 9.664062 50.863281 9.671875 C 51.824219 9.601562 51.421875 9.378906 52.515625 9.300781 C 53.085938 9.335938 51.945312 9.449219 52.296875 9.441406 C 52.484375 9.65625 53.601562 9.222656 54.351562 9.253906 L 54.175781 9.292969 C 54.746094 9.292969 55.527344 9.007812 56.4375 8.890625 C 56.4375 8.890625 56.394531 8.917969 56.4375 8.925781 C 57.046875 8.71875 58.21875 8.507812 59.089844 8.347656 C 58.828125 8.480469 58.699219 8.453125 58.878906 8.523438 C 59.269531 8.453125 58.742188 8.390625 59.523438 8.253906 C 59.785156 8.265625 60.359375 8.230469 60.441406 8.316406 L 59.707031 8.429688 C 60.105469 8.507812 60.664062 8.289062 61.058594 8.253906 L 61.015625 8.316406 C 62.148438 8.136719 62.140625 7.992188 63.359375 7.824219 L 63.230469 7.804688 C 63.875 7.566406 63.800781 7.800781 64.449219 7.597656 L 64.667969 7.714844 C 65.105469 7.613281 66.191406 7.355469 66.972656 7.210938 C 66.542969 7.386719 65.628906 7.574219 65.066406 7.714844 C 65.5 7.652344 66.542969 7.488281 66.761719 7.386719 C 66.585938 7.425781 66.375 7.492188 66.195312 7.496094 C 66.714844 7.3125 67.410156 7.152344 68.277344 7.027344 C 68.242188 7.128906 68.472656 7.136719 68.820312 7.105469 C 68.992188 7.089844 69.199219 7.0625 69.417969 7.035156 C 69.539062 7.019531 69.667969 7.003906 69.789062 6.988281 C 69.796875 7.054688 69.804688 7.113281 69.808594 7.171875 C 69.808594 7.199219 69.808594 7.226562 69.8125 7.25 L 69.8125 7.292969 L 69.816406 7.367188 C 69.828125 7.5625 69.824219 7.730469 69.808594 7.847656 C 70.125 9.386719 70.195312 10.941406 70.464844 12.746094 C 70.582031 12.078125 70.542969 13.28125 70.746094 13.132812 C 70.820312 13.554688 70.835938 13.71875 70.828125 13.757812 L 70.878906 15.054688 C 70.855469 15.371094 70.773438 14.664062 70.730469 14.710938 C 70.839844 15.636719 70.691406 15.109375 70.71875 15.726562 C 70.78125 15.589844 70.878906 16.03125 70.921875 16.566406 L 70.917969 15.808594 C 71.214844 17.085938 70.890625 16.949219 71.191406 18.238281 L 71.058594 17.835938 C 71.195312 18.496094 71.410156 20.296875 71.675781 20.929688 C 71.664062 21.050781 71.625 21.214844 71.570312 20.925781 C 71.769531 22.523438 72.257812 24.453125 72.320312 25.710938 L 72.253906 25.59375 C 72.308594 25.890625 72.421875 26.097656 72.421875 26.480469 C 72.394531 26.464844 72.351562 26.367188 72.367188 26.503906 C 72.410156 26.660156 72.574219 27.285156 72.59375 27.683594 L 72.492188 27.355469 C 72.636719 28.917969 72.96875 29.726562 73.1875 31.023438 C 73.035156 31.042969 73.152344 32.273438 73.214844 32.894531 L 73.1875 32.875 C 73.421875 34.691406 73.75 35.9375 74.046875 37.609375 C 74.023438 38.671875 74.472656 41.148438 74.609375 42.839844 C 74.601562 42.578125 74.738281 42.863281 74.792969 43.15625 C 74.820312 43.554688 75.058594 44.230469 74.90625 44.183594 L 74.890625 44.046875 C 74.835938 44.207031 74.847656 44.484375 74.886719 44.804688 C 74.90625 44.941406 74.925781 45.085938 74.945312 45.230469 C 74.945312 45.257812 74.949219 45.28125 74.957031 45.304688 L 74.96875 45.316406 C 75.027344 45.367188 75.078125 45.425781 75.121094 45.476562 C 75.066406 45.472656 75.011719 45.464844 74.957031 45.457031 L 74.886719 45.449219 C 74.824219 45.453125 74.769531 45.457031 74.710938 45.457031 C 74.480469 45.476562 74.238281 45.5 73.992188 45.53125 C 73.5 45.597656 72.992188 45.683594 72.511719 45.769531 C 71.539062 45.9375 70.660156 46.09375 70.199219 46.035156 C 69.8125 46.140625 69.328125 46.210938 68.941406 46.3125 L 68.945312 46.210938 C 67.855469 46.335938 67.308594 46.40625 65.96875 46.625 L 66.230469 46.507812 C 65.472656 46.617188 65.316406 46.945312 64.617188 47.050781 L 64.382812 46.929688 C 63.058594 47.121094 61.699219 47.179688 60.410156 47.503906 C 60.425781 47.480469 60.460938 47.429688 60.675781 47.394531 C 60.050781 47.476562 58.246094 47.636719 58.503906 47.816406 C 58.46875 47.679688 57.132812 47.996094 56.425781 48.160156 L 56.523438 48.046875 C 55.941406 48.261719 55.929688 48.296875 55.085938 48.453125 C 54.886719 48.46875 54.902344 48.402344 55.171875 48.386719 C 54.496094 48.429688 54.664062 48.558594 53.851562 48.621094 L 54.140625 48.511719 C 53.453125 48.601562 53.511719 48.628906 53.148438 48.761719 C 52.722656 48.859375 51.84375 48.917969 51.730469 48.84375 C 51.644531 48.910156 51.28125 49.042969 50.875 49.074219 C 50.8125 49.046875 50.960938 49.003906 51.03125 48.984375 C 49.878906 49.078125 49.34375 49.347656 48.542969 49.359375 C 48.523438 49.328125 48.46875 49.320312 48.398438 49.316406 C 49.3125 49.1875 50.042969 49.089844 49.976562 49.105469 C 49.964844 49.015625 49.222656 49.101562 49.796875 48.890625 C 49.210938 49.046875 48.226562 49.34375 47.503906 49.398438 C 47.464844 49.398438 47.433594 49.394531 47.40625 49.382812 L 47.476562 49.363281 C 47.308594 49.378906 47.164062 49.40625 47.023438 49.441406 C 46.792969 49.460938 46.648438 49.472656 46.429688 49.503906 C 46.332031 49.433594 45.582031 49.578125 45.210938 49.628906 C 45.257812 49.730469 44.777344 49.78125 45.234375 49.800781 C 45.175781 49.800781 45.304688 49.777344 45.546875 49.738281 C 45.601562 49.726562 45.667969 49.714844 45.703125 49.707031 C 45.695312 49.710938 45.6875 49.714844 45.675781 49.71875 C 45.917969 49.683594 46.230469 49.632812 46.589844 49.578125 C 46.304688 49.671875 46.007812 49.761719 45.597656 49.761719 C 45.417969 49.855469 45.214844 49.953125 45.109375 50 C 44.585938 49.929688 43.609375 49.992188 43.460938 49.925781 C 42.351562 50.140625 40.828125 50.339844 40.152344 50.636719 C 39.839844 50.703125 39.777344 50.628906 39.660156 50.617188 C 39.835938 50.574219 40.058594 50.542969 40.148438 50.503906 C 39.519531 50.644531 38.269531 50.792969 38.136719 50.949219 C 37.324219 51.003906 38.574219 50.761719 37.46875 50.941406 L 37.613281 50.878906 C 35.414062 50.976562 34.136719 51.726562 31.699219 51.796875 C 31.863281 51.789062 31.953125 51.785156 31.984375 51.800781 C 29.226562 52.082031 26.355469 52.726562 23.625 52.925781 C 22.851562 53 22.777344 53.097656 22.320312 53.226562 L 22.136719 53.144531 L 21.351562 53.386719 C 20.230469 53.640625 19.34375 53.398438 17.929688 53.78125 L 18.125 53.832031 C 17.609375 53.890625 16.496094 54.109375 16.570312 54.011719 C 16.519531 54.035156 16.410156 54.113281 16.203125 54.101562 L 16.183594 54.046875 L 14.925781 54.328125 C 13.933594 54.425781 15.046875 54.078125 13.609375 54.277344 C 13.074219 54.375 12.109375 54.660156 12.3125 54.667969 C 12.53125 54.640625 12.867188 54.625 12.894531 54.679688 L 12.414062 54.78125 C 12.34375 54.964844 11.992188 55.191406 13.207031 55.132812 L 14.035156 54.910156 L 14.3125 54.957031 L 13.609375 55.058594 C 14.019531 55.078125 14.261719 54.976562 14.539062 54.886719 C 14.613281 54.917969 14.734375 54.9375 14.902344 54.929688 L 15.699219 54.648438 C 15.808594 54.703125 15.355469 54.832031 15.910156 54.789062 C 16.28125 54.65625 15.515625 54.695312 16.144531 54.554688 C 16.554688 54.574219 16.453125 54.652344 16.90625 54.519531 C 16.980469 54.550781 16.882812 54.59375 16.703125 54.640625 C 17.109375 54.53125 17.804688 54.464844 18.003906 54.339844 C 18.4375 54.375 19.414062 54.113281 19.394531 54.277344 C 19.519531 54.222656 20.113281 54.046875 20.496094 53.988281 C 19.820312 54.277344 21.933594 53.789062 21.777344 54.023438 C 22.269531 53.777344 23.640625 53.671875 24.546875 53.445312 C 24.496094 53.464844 24.394531 53.511719 24.316406 53.515625 C 24.835938 53.453125 24.992188 53.480469 25.328125 53.464844 C 25.375 53.316406 26.175781 53.167969 26.601562 53.019531 C 27.25 53.0625 26.238281 53.238281 26.457031 53.34375 C 26.40625 53.230469 27.539062 53.070312 27.308594 53.003906 C 27.808594 53.023438 27.734375 52.984375 28 53.066406 C 28.0625 52.878906 28.449219 52.972656 28.835938 52.808594 C 29.550781 52.792969 29.039062 52.945312 29.804688 52.777344 C 30.175781 52.777344 29.5 52.941406 29.5 52.941406 Z M 47.785156 50 L 47.785156 50.003906 C 47.625 50.027344 47.492188 50.046875 47.40625 50.0625 C 47.484375 50.046875 47.59375 50.03125 47.785156 50 Z M 49.324219 49.777344 C 49.136719 49.800781 48.898438 49.835938 48.652344 49.871094 C 48.597656 49.839844 48.648438 49.796875 48.804688 49.777344 C 48.726562 49.8125 49.089844 49.78125 49.324219 49.777344 Z M 45.964844 49.539062 C 46.207031 49.492188 46.292969 49.5 46.332031 49.515625 C 46.214844 49.539062 46.082031 49.558594 45.90625 49.589844 C 45.898438 49.59375 45.886719 49.601562 45.875 49.605469 C 45.898438 49.582031 45.921875 49.558594 45.964844 49.539062 Z M 45.964844 49.539062 "/>
<path style=" stroke:none;fill-rule:nonzero;fill:rgb(1.960784%,37.647059%,68.627451%);fill-opacity:1;" d="M 45.546875 49.738281 C 45.515625 49.746094 45.492188 49.75 45.445312 49.761719 C 45.496094 49.761719 45.546875 49.761719 45.597656 49.761719 C 45.625 49.75 45.652344 49.734375 45.675781 49.71875 C 45.632812 49.726562 45.589844 49.734375 45.546875 49.738281 Z M 45.546875 49.738281 "/>
<path style=" stroke:none;fill-rule:nonzero;fill:rgb(1.960784%,37.647059%,68.627451%);fill-opacity:1;" d="M 8.117188 23.769531 L 8.113281 23.738281 C 8.113281 23.769531 8.113281 23.792969 8.109375 23.808594 C 8.109375 23.785156 8.113281 23.785156 8.117188 23.769531 Z M 8.117188 23.769531 "/>
<path style=" stroke:none;fill-rule:nonzero;fill:rgb(1.960784%,37.647059%,68.627451%);fill-opacity:1;" d="M 70.621094 46.910156 L 70.613281 46.886719 L 70.480469 46.929688 Z M 70.621094 46.910156 "/>
<path style=" stroke:none;fill-rule:nonzero;fill:rgb(1.960784%,37.647059%,68.627451%);fill-opacity:1;" d="M 8.980469 32.417969 C 8.972656 32.433594 8.96875 32.464844 8.96875 32.535156 C 8.976562 32.527344 8.976562 32.472656 8.980469 32.417969 Z M 8.980469 32.417969 "/>
<path style=" stroke:none;fill-rule:nonzero;fill:rgb(1.960784%,37.647059%,68.627451%);fill-opacity:1;" d="M 9.472656 36.132812 L 9.515625 36.664062 C 9.503906 36.433594 9.492188 36.265625 9.472656 36.132812 Z M 9.472656 36.132812 "/>
<path style=" stroke:none;fill-rule:nonzero;fill:rgb(1.960784%,37.647059%,68.627451%);fill-opacity:1;" d="M 9.828125 38.992188 C 9.847656 39.027344 9.863281 39.035156 9.878906 39.046875 L 9.878906 39.039062 Z M 9.828125 38.992188 "/>
<path style=" stroke:none;fill-rule:nonzero;fill:rgb(1.960784%,37.647059%,68.627451%);fill-opacity:1;" d="M 28.683594 12.214844 C 28.722656 12.203125 28.761719 12.199219 28.792969 12.191406 C 29.042969 12.136719 28.875 12.167969 28.683594 12.214844 Z M 28.683594 12.214844 "/>
<path style=" stroke:none;fill-rule:nonzero;fill:rgb(1.960784%,37.647059%,68.627451%);fill-opacity:1;" d="M 15.390625 14.367188 C 15.527344 14.332031 15.664062 14.292969 15.808594 14.261719 C 15.570312 14.289062 15.390625 14.308594 15.390625 14.367188 Z M 15.390625 14.367188 "/>
<path style=" stroke:none;fill-rule:nonzero;fill:rgb(1.960784%,37.647059%,68.627451%);fill-opacity:1;" d="M 43.554688 9.949219 C 43.554688 9.949219 43.554688 9.949219 43.550781 9.953125 C 43.582031 9.945312 43.609375 9.945312 43.648438 9.941406 Z M 43.554688 9.949219 "/>
<path style=" stroke:none;fill-rule:nonzero;fill:rgb(1.960784%,37.647059%,68.627451%);fill-opacity:1;" d="M 16.433594 14.171875 C 16.191406 14.1875 15.992188 14.21875 15.808594 14.261719 C 16.007812 14.238281 16.234375 14.21875 16.433594 14.171875 Z M 16.433594 14.171875 "/>
<path style=" stroke:none;fill-rule:nonzero;fill:rgb(1.960784%,37.647059%,68.627451%);fill-opacity:1;" d="M 11.515625 51.375 L 11.53125 51.511719 C 11.535156 51.507812 11.542969 51.515625 11.546875 51.523438 Z M 11.515625 51.375 "/>
<path style=" stroke:none;fill-rule:nonzero;fill:rgb(1.960784%,37.647059%,68.627451%);fill-opacity:1;" d="M 11.546875 51.523438 L 11.582031 51.675781 C 11.570312 51.609375 11.5625 51.542969 11.546875 51.523438 Z M 11.546875 51.523438 "/>
<path style=" stroke:none;fill-rule:nonzero;fill:rgb(1.960784%,37.647059%,68.627451%);fill-opacity:1;" d="M 11.652344 51.992188 L 11.582031 51.675781 C 11.597656 51.785156 11.617188 51.925781 11.652344 51.992188 Z M 11.652344 51.992188 "/>
<path style=" stroke:none;fill-rule:nonzero;fill:rgb(1.960784%,37.647059%,68.627451%);fill-opacity:1;" d="M 11.03125 47.589844 L 10.988281 47.550781 C 11 47.574219 11.011719 47.585938 11.03125 47.589844 Z M 11.03125 47.589844 "/>
<path style=" stroke:none;fill-rule:nonzero;fill:rgb(1.960784%,37.647059%,68.627451%);fill-opacity:1;" d="M 10.859375 46.4375 C 10.890625 46.714844 10.878906 47.140625 10.957031 47.515625 L 10.988281 47.550781 C 10.910156 47.378906 10.960938 46.691406 10.859375 46.4375 Z M 10.859375 46.4375 "/>
<path style=" stroke:none;fill-rule:nonzero;fill:rgb(1.960784%,37.647059%,68.627451%);fill-opacity:1;" d="M 10.640625 41.585938 L 10.742188 42.550781 C 10.757812 42.375 10.777344 42.144531 10.851562 42.585938 C 10.792969 41.355469 10.796875 42.847656 10.640625 41.585938 Z M 10.640625 41.585938 "/>
<path style=" stroke:none;fill-rule:nonzero;fill:rgb(1.960784%,37.647059%,68.627451%);fill-opacity:1;" d="M 10.273438 38.589844 C 10.367188 39.105469 10.335938 38.574219 10.359375 38.601562 C 10.273438 38.277344 10.253906 38.199219 10.273438 38.589844 Z M 10.273438 38.589844 "/>
<path style=" stroke:none;fill-rule:nonzero;fill:rgb(1.960784%,37.647059%,68.627451%);fill-opacity:1;" d="M 7.253906 17.023438 L 7.355469 17.066406 C 7.28125 16.671875 7.316406 17.070312 7.253906 17.023438 Z M 7.253906 17.023438 "/>
<path style=" stroke:none;fill-rule:nonzero;fill:rgb(1.960784%,37.647059%,68.627451%);fill-opacity:1;" d="M 9.589844 15.109375 L 9.195312 15.105469 L 9.027344 15.21875 Z M 9.589844 15.109375 "/>
<path style=" stroke:none;fill-rule:nonzero;fill:rgb(1.960784%,37.647059%,68.627451%);fill-opacity:1;" d="M 12.082031 15.425781 L 11.914062 15.460938 L 12.566406 15.332031 Z M 12.082031 15.425781 "/>
<path style=" stroke:none;fill-rule:nonzero;fill:rgb(1.960784%,37.647059%,68.627451%);fill-opacity:1;" d="M 47.820312 10.246094 L 47.683594 10.152344 C 47.421875 10.207031 47.382812 10.34375 47.820312 10.246094 Z M 47.820312 10.246094 "/>
<path style=" stroke:none;fill-rule:nonzero;fill:rgb(1.960784%,37.647059%,68.627451%);fill-opacity:1;" d="M 63.234375 7.910156 C 63.410156 7.941406 63.847656 7.914062 64.109375 7.824219 C 63.757812 7.863281 63.40625 7.871094 63.234375 7.910156 Z M 63.234375 7.910156 "/>
<path style=" stroke:none;fill-rule:nonzero;fill:rgb(1.960784%,37.647059%,68.627451%);fill-opacity:1;" d="M 74.582031 45.410156 C 74.675781 45.378906 74.796875 45.351562 74.875 45.328125 L 74.304688 45.441406 Z M 74.582031 45.410156 "/>
<path style=" stroke:none;fill-rule:nonzero;fill:rgb(1.960784%,37.647059%,68.627451%);fill-opacity:1;" d="M 14.105469 15.382812 L 68.097656 15.382812 L 68.097656 45.953125 L 14.105469 45.953125 Z M 14.105469 15.382812 "/>
<path style=" stroke:none;fill-rule:nonzero;fill:rgb(73.333333%,89.803922%,90.980392%);fill-opacity:1;" d="M 19.214844 34.5625 C 19.214844 34.382812 19.269531 34.242188 19.378906 34.128906 C 19.488281 34.019531 19.632812 33.96875 19.804688 33.96875 C 19.984375 33.96875 20.121094 34.019531 20.234375 34.128906 C 20.339844 34.226562 20.394531 34.367188 20.394531 34.542969 C 20.394531 34.945312 20.222656 35.308594 19.863281 35.640625 C 19.527344 35.953125 19.101562 36.113281 18.585938 36.113281 C 18.070312 36.113281 17.640625 35.933594 17.300781 35.574219 C 16.964844 35.207031 16.792969 34.753906 16.792969 34.214844 L 16.792969 27.078125 L 15.917969 27.078125 C 15.769531 27.078125 15.640625 27.019531 15.53125 26.910156 C 15.4375 26.796875 15.390625 26.675781 15.390625 26.539062 C 15.390625 26.402344 15.4375 26.277344 15.53125 26.167969 C 15.640625 26.058594 15.769531 26.003906 15.917969 26.003906 L 16.402344 26.003906 C 16.621094 26.003906 16.757812 25.972656 16.8125 25.921875 C 16.867188 25.855469 16.890625 25.722656 16.890625 25.527344 L 16.890625 24.414062 C 16.890625 23.878906 17.164062 23.609375 17.707031 23.609375 C 17.871094 23.609375 17.953125 23.691406 17.953125 23.855469 L 17.953125 26.003906 L 18.851562 26.003906 C 19.214844 26.003906 19.398438 26.1875 19.398438 26.558594 C 19.398438 26.695312 19.347656 26.824219 19.257812 26.933594 C 19.160156 27.023438 19.023438 27.078125 18.851562 27.078125 L 17.953125 27.078125 L 17.953125 34.191406 C 17.953125 34.839844 18.164062 35.164062 18.585938 35.164062 C 19.003906 35.164062 19.214844 34.964844 19.214844 34.5625 Z M 22.128906 34.8125 L 22.128906 27.058594 L 21.597656 27.058594 C 21.433594 27.058594 21.304688 27.007812 21.210938 26.910156 C 21.117188 26.796875 21.066406 26.675781 21.066406 26.539062 C 21.066406 26.183594 21.246094 26.003906 21.597656 26.003906 L 22.617188 26.003906 C 23.035156 26.003906 23.253906 26.1875 23.265625 26.558594 L 23.265625 34.832031 L 23.773438 34.832031 C 23.941406 34.832031 24.058594 34.886719 24.140625 34.996094 C 24.238281 35.105469 24.285156 35.230469 24.285156 35.367188 C 24.285156 35.726562 24.113281 35.90625 23.773438 35.90625 L 21.617188 35.90625 C 21.480469 35.90625 21.359375 35.855469 21.253906 35.761719 C 21.15625 35.652344 21.109375 35.527344 21.109375 35.390625 C 21.109375 35.253906 21.15625 35.125 21.253906 35.015625 C 21.359375 34.890625 21.480469 34.832031 21.617188 34.832031 Z M 22.433594 22.804688 C 22.703125 22.804688 22.925781 22.894531 23.105469 23.074219 C 23.292969 23.253906 23.390625 23.472656 23.390625 23.734375 C 23.390625 23.984375 23.292969 24.195312 23.105469 24.375 C 22.925781 24.554688 22.703125 24.640625 22.433594 24.640625 C 22.175781 24.640625 21.949219 24.554688 21.761719 24.375 C 21.585938 24.195312 21.496094 23.984375 21.496094 23.734375 C 21.496094 23.472656 21.585938 23.253906 21.761719 23.074219 C 21.9375 22.894531 22.160156 22.804688 22.433594 22.804688 Z M 37.597656 29.097656 L 37.597656 34.832031 L 38.070312 34.832031 C 38.21875 34.832031 38.335938 34.886719 38.414062 34.996094 C 38.492188 35.105469 38.535156 35.230469 38.535156 35.367188 C 38.535156 35.503906 38.492188 35.628906 38.414062 35.738281 C 38.335938 35.847656 38.21875 35.90625 38.070312 35.90625 L 36.113281 35.90625 C 35.964844 35.90625 35.847656 35.847656 35.769531 35.738281 C 35.6875 35.628906 35.648438 35.503906 35.648438 35.367188 C 35.648438 35.230469 35.6875 35.105469 35.769531 34.996094 C 35.847656 34.886719 35.964844 34.832031 36.113281 34.832031 L 36.460938 34.832031 L 36.460938 29.386719 C 36.460938 28.535156 36.371094 27.902344 36.195312 27.488281 C 36.019531 27.0625 35.660156 26.851562 35.117188 26.851562 C 34.589844 26.851562 34.125 27.078125 33.730469 27.53125 C 33 28.355469 32.628906 29.371094 32.628906 30.582031 L 32.628906 34.832031 L 33.039062 34.832031 C 33.199219 34.832031 33.324219 34.886719 33.402344 34.996094 C 33.503906 35.105469 33.550781 35.238281 33.550781 35.390625 C 33.550781 35.527344 33.503906 35.652344 33.402344 35.761719 C 33.324219 35.855469 33.199219 35.90625 33.039062 35.90625 L 31.105469 35.90625 C 30.75 35.90625 30.578125 35.726562 30.578125 35.367188 C 30.578125 35.011719 30.75 34.832031 31.105469 34.832031 L 31.511719 34.832031 L 31.511719 29.242188 C 31.511719 28.789062 31.484375 28.402344 31.429688 28.089844 C 31.378906 27.773438 31.238281 27.488281 31.023438 27.238281 C 30.804688 26.980469 30.507812 26.851562 30.128906 26.851562 C 29.382812 26.851562 28.785156 27.246094 28.335938 28.046875 C 27.902344 28.84375 27.6875 29.675781 27.6875 30.542969 L 27.6875 34.832031 L 28.09375 34.832031 C 28.214844 34.832031 28.320312 34.890625 28.414062 35.015625 C 28.527344 35.125 28.582031 35.253906 28.582031 35.390625 C 28.582031 35.511719 28.535156 35.628906 28.4375 35.738281 C 28.34375 35.847656 28.230469 35.90625 28.09375 35.90625 L 26.015625 35.90625 C 25.851562 35.90625 25.722656 35.847656 25.628906 35.738281 C 25.535156 35.628906 25.484375 35.503906 25.484375 35.367188 C 25.484375 35.230469 25.535156 35.105469 25.628906 34.996094 C 25.722656 34.886719 25.851562 34.832031 26.015625 34.832031 L 26.542969 34.832031 L 26.542969 27.078125 L 25.832031 27.078125 C 25.695312 27.078125 25.582031 27.023438 25.484375 26.933594 C 25.40625 26.835938 25.363281 26.707031 25.363281 26.539062 C 25.363281 26.363281 25.410156 26.230469 25.507812 26.152344 C 25.613281 26.050781 25.722656 26.003906 25.832031 26.003906 L 27.335938 26.003906 C 27.472656 26.003906 27.5625 26.023438 27.601562 26.0625 C 27.660156 26.109375 27.6875 26.203125 27.6875 26.355469 L 27.6875 27.691406 L 27.726562 27.691406 C 28.320312 26.484375 29.171875 25.882812 30.269531 25.882812 C 31.386719 25.882812 32.109375 26.523438 32.449219 27.820312 C 33.207031 26.523438 34.148438 25.882812 35.257812 25.882812 C 36.113281 25.882812 36.71875 26.195312 37.070312 26.832031 C 37.425781 27.445312 37.597656 28.203125 37.597656 29.097656 Z M 40.671875 34.8125 L 40.671875 27.058594 L 40.144531 27.058594 C 39.980469 27.058594 39.851562 27.007812 39.757812 26.910156 C 39.664062 26.796875 39.613281 26.675781 39.613281 26.539062 C 39.613281 26.183594 39.792969 26.003906 40.144531 26.003906 L 41.160156 26.003906 C 41.585938 26.003906 41.804688 26.1875 41.816406 26.558594 L 41.816406 34.832031 L 42.324219 34.832031 C 42.484375 34.832031 42.609375 34.886719 42.691406 34.996094 C 42.78125 35.105469 42.832031 35.230469 42.832031 35.367188 C 42.832031 35.726562 42.664062 35.90625 42.324219 35.90625 L 40.160156 35.90625 C 40.027344 35.90625 39.910156 35.855469 39.796875 35.761719 C 39.707031 35.652344 39.660156 35.527344 39.660156 35.390625 C 39.660156 35.253906 39.707031 35.125 39.796875 35.015625 C 39.910156 34.890625 40.027344 34.832031 40.160156 34.832031 Z M 40.980469 22.804688 C 41.25 22.804688 41.472656 22.894531 41.652344 23.074219 C 41.839844 23.253906 41.9375 23.472656 41.9375 23.734375 C 41.9375 23.984375 41.839844 24.195312 41.652344 24.375 C 41.472656 24.554688 41.25 24.640625 40.980469 24.640625 C 40.722656 24.640625 40.5 24.554688 40.308594 24.375 C 40.128906 24.195312 40.042969 23.984375 40.042969 23.734375 C 40.042969 23.472656 40.128906 23.253906 40.308594 23.074219 C 40.484375 22.894531 40.703125 22.804688 40.980469 22.804688 Z M 50.035156 29.058594 C 49.980469 28.507812 49.738281 27.976562 49.308594 27.464844 C 48.871094 26.957031 48.328125 26.707031 47.679688 26.707031 C 47.039062 26.707031 46.507812 26.945312 46.089844 27.429688 C 45.667969 27.90625 45.375 28.449219 45.214844 29.058594 Z M 47.902344 36.113281 C 46.667969 36.113281 45.671875 35.621094 44.929688 34.644531 C 44.183594 33.667969 43.808594 32.425781 43.808594 30.914062 C 43.808594 29.398438 44.160156 28.167969 44.867188 27.21875 C 45.589844 26.269531 46.53125 25.796875 47.699219 25.796875 C 48.292969 25.796875 48.832031 25.9375 49.308594 26.210938 C 49.777344 26.46875 50.148438 26.796875 50.40625 27.199219 C 50.949219 28.011719 51.21875 28.78125 51.21875 29.511719 C 51.21875 29.894531 51.042969 30.089844 50.691406 30.089844 L 44.992188 30.089844 C 44.960938 30.265625 44.945312 30.519531 44.945312 30.847656 C 44.945312 32.117188 45.226562 33.15625 45.785156 33.96875 C 46.355469 34.777344 47.058594 35.183594 47.902344 35.183594 C 48.269531 35.183594 48.597656 35.085938 48.898438 34.890625 C 49.195312 34.691406 49.40625 34.496094 49.53125 34.316406 C 49.652344 34.121094 49.789062 33.871094 49.9375 33.554688 C 50.101562 33.234375 50.320312 33.082031 50.59375 33.082031 C 50.996094 33.082031 51.199219 33.265625 51.199219 33.636719 C 51.199219 34.117188 50.894531 34.652344 50.28125 35.246094 C 49.683594 35.820312 48.890625 36.113281 47.902344 36.113281 Z M 53.621094 23.714844 C 54.085938 23.152344 54.601562 22.867188 55.171875 22.867188 C 55.742188 22.867188 56.167969 23.007812 56.453125 23.28125 C 56.753906 23.542969 56.898438 23.808594 56.898438 24.082031 C 56.898438 24.359375 56.832031 24.566406 56.695312 24.707031 C 56.558594 24.828125 56.371094 24.886719 56.125 24.886719 C 55.878906 24.886719 55.648438 24.765625 55.4375 24.519531 C 55.230469 24.257812 55.105469 23.992188 55.066406 23.714844 C 54.753906 23.742188 54.492188 23.996094 54.273438 24.476562 C 54.058594 24.945312 53.9375 25.484375 53.90625 26.082031 L 54.945312 26.082031 C 55.082031 26.082031 55.1875 26.132812 55.273438 26.230469 C 55.351562 26.324219 55.394531 26.445312 55.394531 26.582031 C 55.394531 26.707031 55.34375 26.816406 55.253906 26.910156 C 55.171875 27.007812 55.066406 27.058594 54.945312 27.058594 L 53.96875 27.058594 L 53.96875 34.832031 L 54.621094 34.832031 C 54.742188 34.832031 54.847656 34.886719 54.945312 34.996094 C 55.039062 35.105469 55.085938 35.230469 55.085938 35.367188 C 55.085938 35.503906 55.039062 35.628906 54.945312 35.738281 C 54.867188 35.847656 54.753906 35.90625 54.621094 35.90625 L 52.257812 35.90625 C 51.90625 35.90625 51.730469 35.71875 51.730469 35.347656 C 51.730469 35.210938 51.769531 35.09375 51.851562 34.996094 C 51.945312 34.886719 52.082031 34.832031 52.257812 34.832031 L 52.828125 34.832031 L 52.828125 27.058594 L 52.15625 27.058594 C 52.023438 27.058594 51.910156 27.007812 51.828125 26.910156 C 51.761719 26.816406 51.730469 26.707031 51.730469 26.582031 C 51.730469 26.25 51.871094 26.082031 52.15625 26.082031 L 52.890625 26.082031 C 52.929688 25.066406 53.175781 24.277344 53.621094 23.714844 Z M 58.144531 27.078125 L 57.429688 27.078125 C 57.320312 27.078125 57.214844 27.019531 57.125 26.910156 C 57.042969 26.785156 57.003906 26.664062 57.003906 26.539062 C 57.003906 26.402344 57.042969 26.277344 57.125 26.167969 C 57.214844 26.058594 57.320312 26.003906 57.429688 26.003906 L 59.851562 26.003906 C 59.960938 26.003906 60.054688 26.058594 60.136719 26.167969 C 60.234375 26.277344 60.28125 26.402344 60.28125 26.539062 C 60.28125 26.664062 60.234375 26.785156 60.136719 26.910156 C 60.054688 27.019531 59.960938 27.078125 59.851562 27.078125 L 59.28125 27.097656 L 62.007812 33.492188 L 64.800781 27.078125 L 64.3125 27.078125 C 64.1875 27.078125 64.078125 27.019531 63.988281 26.910156 C 63.890625 26.785156 63.839844 26.664062 63.839844 26.539062 C 63.839844 26.402344 63.882812 26.277344 63.964844 26.167969 C 64.0625 26.058594 64.175781 26.003906 64.3125 26.003906 L 66.347656 26.003906 C 66.480469 26.003906 66.589844 26.058594 66.671875 26.167969 C 66.765625 26.277344 66.8125 26.402344 66.8125 26.539062 C 66.8125 26.664062 66.765625 26.785156 66.671875 26.910156 C 66.578125 27.019531 66.46875 27.078125 66.347656 27.078125 L 65.859375 27.078125 L 61.988281 35.867188 C 61.421875 37.199219 60.835938 38.011719 60.242188 38.300781 C 59.941406 38.449219 59.566406 38.527344 59.117188 38.527344 C 58.671875 38.527344 58.296875 38.386719 57.996094 38.113281 C 57.714844 37.824219 57.570312 37.550781 57.570312 37.285156 C 57.570312 36.765625 57.796875 36.503906 58.246094 36.503906 C 58.582031 36.503906 58.847656 36.644531 59.039062 36.917969 C 59.242188 37.175781 59.355469 37.449219 59.382812 37.742188 C 59.957031 37.699219 60.503906 37.0625 61.035156 35.820312 L 61.421875 34.851562 Z M 58.144531 27.078125 "/>
</g>
</svg>
